<svg width="350" height="377" viewBox="0 0 350 377" fill="none" xmlns="http://www.w3.org/2000/svg">
<path fill-rule="evenodd" clip-rule="evenodd" d="M13 1.07721C13 2.55774 9.56748 5.69874 6.79099 6.75891L4.50751 7.63062L4.379 169.888L4.25 332.146L3.2305 333.895C2.67 334.857 1.7135 335.867 1.1055 336.138C0.121999 336.577 0 337.006 0 340.021C0 344.184 1.675 352.15 3.2955 355.691C4.3345 357.961 4.5 359.076 4.5 363.791V369.259L5.89249 369.537C6.65849 369.69 8.40249 370.562 9.76749 371.474C11.698 372.764 12.353 373.55 12.713 375.007L13.1765 376.882H175H336.824L337.287 375.007C337.647 373.55 338.302 372.764 340.233 371.474C341.598 370.562 343.342 369.69 344.108 369.537L345.5 369.259L345.503 363.698C345.506 359.625 345.716 357.737 346.29 356.638C347.965 353.435 349.583 346.615 349.85 341.643C350.111 336.768 350.089 336.632 348.953 336.145C348.313 335.87 347.33 334.857 346.77 333.895L345.75 332.146L345.621 169.888L345.493 7.63062L343.209 6.75891C340.433 5.69874 337 2.55774 337 1.07721V0H175H13V1.07721ZM338.32 12.2002C335.441 8.24494 331.933 5.18989 328.25 3.43195L325.25 2.00037L175 2.00488L24.75 2.0094L22.0285 3.27551C18.4885 4.923 14.4325 8.41891 11.691 12.1857L9.5 15.1953L9.49249 172.421C9.48749 271.745 9.3005 332.348 8.9855 336.981C8.711 341.015 8.156 346.638 7.7525 349.477C6.639 357.307 6.738 358.82 8.543 361.544C11.1855 365.533 14.3645 368.699 18.636 371.596L22.75 374.387H175H327.25L331.364 371.596C335.636 368.699 338.815 365.533 341.457 361.544C343.262 358.82 343.361 357.307 342.248 349.477C341.844 346.638 341.289 341.015 341.015 336.981C340.7 332.348 340.513 271.745 340.508 172.421L340.5 15.1953L338.32 12.2002ZM18.25 3.13153C15.1285 5.42181 11.7785 8.86625 9.431 12.1997L7 15.6521L7.00101 12.4496L7.0025 9.24713L9.83649 7.76654C11.8425 6.71887 13.047 5.66472 13.96 4.15869C15.171 2.16132 15.3875 2.03088 17.5 2.03088H19.75L18.25 3.13153ZM7.63599 343.892C7.95199 342.135 8.20049 287.927 8.32449 193.689C8.54749 24.1194 8.518 16.7083 7.625 18.6686C7.1285 19.7583 7.0145 53.6452 7.0705 183.341C7.1175 292.828 7.30399 345.736 7.63599 343.892ZM335.28 3.09259C335.764 4.61611 338.575 7.1538 340.98 8.23846L343 9.14911V12.4006V15.6521L340.569 12.1997C338.221 8.86625 334.872 5.42181 331.75 3.13153L330.25 2.03088L332.592 2.01538C334.568 2.00189 334.987 2.16988 335.28 3.09259ZM342.364 343.892C342.697 345.739 342.883 292.965 342.93 183.163C342.992 39.5321 342.91 19.5674 342.26 18.7147C341.607 17.8574 341.54 36.6071 341.694 179.444C341.806 283.381 342.045 342.125 342.364 343.892ZM4.45001 344.517L4.39999 353.139L3.42151 350.14C2.88301 348.491 2.2065 345.183 1.918 342.789L1.39301 338.438L2.8215 337.182C3.607 336.491 4.306 335.919 4.375 335.911C4.444 335.902 4.47751 339.774 4.45001 344.517ZM16.18 372.197C14.5685 370.995 12.4465 369.139 11.4645 368.073C10.4825 367.007 9.07601 365.387 8.33951 364.472L7 362.81V365.088C7 367.312 7.06001 367.398 9.42001 368.594C11.7275 369.762 15 372.874 15 373.9C15 374.166 15.925 374.382 17.055 374.382H19.11L16.18 372.197ZM348.212 341.643C347.949 344.856 346.152 352.889 345.695 352.889C345.588 352.889 345.5 349.049 345.5 344.354V335.819L346.999 336.981C348.472 338.123 348.493 338.206 348.212 341.643ZM340.58 368.594C342.931 367.403 343 367.304 343 365.127C343 363.894 342.888 362.886 342.75 362.886C342.613 362.886 342.499 363.055 342.498 363.261C342.493 364.106 336.596 370.166 333.801 372.2L330.8 374.382H332.9C334.055 374.382 335 374.166 335 373.9C335 372.874 338.273 369.762 340.58 368.594Z" fill="black"/>
</svg>
