<svg width="108" height="34" viewBox="0 0 108 34" fill="none" xmlns="http://www.w3.org/2000/svg">
<path d="M99.2689 28.3839H1.05346V5.29602H99.2769" stroke="black" stroke-width="0.87" stroke-miterlimit="10"/>
<path d="M106.053 8.63781V25.0237C104.956 26.042 103.935 27.1629 103 28.3747C102.11 29.5322 101.3 30.7668 100.577 32.0673H1.05346V1.60342H100.553C101.279 2.90189 102.089 4.13623 102.976 5.29602C103.921 6.50372 104.95 7.62136 106.053 8.63781V8.63781Z" stroke="black" stroke-miterlimit="10"/>
<path d="M106.053 8.63781V25.0237C104.956 26.042 103.935 27.1629 103 28.3747C102.11 29.5322 101.3 30.7668 100.577 32.0673H1.05346V1.60342H100.553C101.279 2.90189 102.089 4.13623 102.976 5.29602C103.921 6.50372 104.95 7.62136 106.053 8.63781V8.63781Z" stroke="black" stroke-width="2" stroke-miterlimit="10"/>
<path d="M106.053 16.8354C106.053 22.5589 101.417 27.8393 93.5989 32.0673H1.05346V1.60342H93.615C101.417 5.83144 106.053 11.1119 106.053 16.8354Z" stroke="black" stroke-width="0.87" stroke-miterlimit="10"/>
<path d="M3.61386 5.29602V28.3747" stroke="black" stroke-width="0.87" stroke-miterlimit="10"/>
</svg>
