<svg width="351" height="340" viewBox="0 0 351 340" fill="none" xmlns="http://www.w3.org/2000/svg">
<path fill-rule="evenodd" clip-rule="evenodd" d="M9.0415 9.76489L13.907 4.88245L18.7725 0H179.523H340.274L345.158 4.86389L350.042 9.72791V169.963V330.198L345.224 335.046L340.406 339.893H179.608H18.8095L13.9255 335.029L9.0415 330.165V287.651V245.137L4.6665 241.393L0.291504 237.649L0.145508 234.09L0 230.531L4.52051 226.696L9.0415 222.862L9.00351 209.275L8.96552 195.689L4.50351 192.026L0.0415039 188.363L0.0650024 184.778L0.088501 181.193L4.565 177.489L9.0415 173.784L9.03702 160.244L9.0325 146.704L4.53702 142.97L0.0415039 139.237V135.672V132.107L4.5105 128.409L8.97949 124.711L9.0105 111.19L9.0415 97.6688L4.5415 93.8026L0.0415039 89.9363V86.4907V83.0454L4.5415 79.1976L9.0415 75.3503L9.013 61.7926L8.98401 48.2349L4.513 44.5704L0.0415039 40.9061L0.04599 37.3228L0.0505066 33.7394L4.54599 30.0056L9.0415 26.2722V18.0184V9.76489ZM15.0415 18.7441C15.0415 22.7224 14.9145 23.4926 14.258 23.4926C13.6925 23.4926 13.566 23.7816 13.803 24.5283C14.1235 25.5385 12.912 27.4913 11.964 27.4913C11.2915 27.4913 11.4745 22.365 12.234 19.9482C13.1 17.1911 14.4765 13.9956 14.798 13.9956C14.932 13.9956 15.0415 16.1325 15.0415 18.7441ZM13.077 14.7914C15.432 10.1403 17.844 7.21224 21.1225 5.02393L24.1555 2.99902H21.7115C19.328 2.99902 19.1735 3.09398 15.405 6.88379L11.5415 10.7686L11.5615 14.2565L11.5815 17.7444L13.077 14.7914ZM36.5415 18.3208C36.5415 18.5877 28.025 29.2528 23.6845 34.4207L22.5775 35.7388L22.5675 34.4891C22.554 32.7892 34.229 17.9944 35.5845 17.9944C36.111 17.9944 36.5415 18.1414 36.5415 18.3208ZM36.5415 56.2253C36.5415 55.9494 34.8115 53.7936 27.576 45.0543C25.041 41.9928 22.8715 39.4875 22.7545 39.4875C22.637 39.4875 22.5415 39.9384 22.5415 40.4893C22.5415 41.0401 25.1855 44.8464 28.4165 48.9481C32.773 54.4779 34.5825 56.4154 35.4165 56.4438C36.035 56.4648 36.5415 56.3668 36.5415 56.2253ZM93.07 26.8196C97.042 31.6736 100.569 36.0362 100.909 36.5145C101.566 37.4417 101.179 37.9776 90.175 51.3589L85.962 56.4823L62.1265 56.4792L38.2915 56.4768L31.2915 47.901C27.4415 43.1845 23.976 38.8293 23.5905 38.2225C22.93 37.1834 23.1905 36.7494 28.0905 30.7313C30.951 27.2174 34.487 22.9143 35.948 21.1683L38.604 17.9944H62.2265H85.8485L93.07 26.8196ZM13.855 50.2493C14.018 49.8244 13.784 48.9161 13.335 48.2308C12.886 47.5461 12.2985 46.9852 12.03 46.9852C11.723 46.9852 11.5415 52.4655 11.5415 61.7306C11.5415 74.3471 11.647 76.476 12.274 76.476C13.264 76.476 14.1695 74.6675 13.7855 73.4579C13.5665 72.7681 13.7065 72.4773 14.258 72.4773C14.9445 72.4773 15.0415 71.1831 15.0415 62.0339C15.0415 53.2647 14.9225 51.5453 14.3 51.3064C13.876 51.1439 13.6855 50.6911 13.855 50.2493ZM95.336 25.5359C101.083 32.8136 102.166 34.4891 101.128 34.4891C100.546 34.4891 88.0415 19.1975 88.0415 18.4867C88.0415 16.8992 90.0455 18.836 95.336 25.5359ZM95.52 48.9291C98.832 44.7754 101.542 41.064 101.542 40.6816C101.542 40.2998 101.373 39.992 101.167 39.9969C100.96 40.0024 98.654 42.6381 96.0415 45.8541C95.5215 46.4943 95.0324 47.096 94.5727 47.6616C88.8355 54.7209 87.6711 56.1535 87.8995 56.4282C87.9577 56.4981 88.1061 56.493 88.2923 56.4865C88.3209 56.4855 88.3503 56.4845 88.3805 56.4837C88.4121 56.4829 88.4445 56.4823 88.4775 56.4823C89.1955 56.4823 91.289 54.2369 95.52 48.9291ZM335.043 4.34314C336.527 5.08191 338.821 6.72778 340.141 7.99988L342.542 10.3127V169.947V329.58L340.123 331.911C338.792 333.193 336.373 334.895 334.748 335.693L331.792 337.144H179.542H27.2915L24.468 335.821C22.915 335.093 20.4965 333.391 19.093 332.039L16.5415 329.58V288.751V247.922L22.1665 247.949L27.7915 247.975L30.7495 251.698L33.708 255.42L61.9995 255.414L90.2915 255.409L96.9165 247.099L103.542 238.789L103.523 233.984L103.505 229.178L97.1485 221.074L90.7915 212.97L62.0415 212.971L33.2915 212.972L30.593 216.452L27.8945 219.931H22.218H16.5415V209.434V198.938H22.218H27.8945L30.593 202.417L33.2915 205.896L62.0415 205.89L90.7915 205.884L94.9785 200.439C97.281 197.445 99.531 194.588 99.9785 194.092C103.277 190.428 103.542 189.738 103.542 184.789V180.071L101.026 176.883C99.6415 175.13 96.6745 171.39 94.432 168.572L90.3545 163.449H61.989H33.6235L30.7075 167.175L27.7915 170.9L22.1665 170.923L16.5415 170.946V160.2V149.453H22.035H27.5285L30.6065 153.202L33.6845 156.951H62.0285H90.373L96.9575 148.715L103.542 140.479V135.711V130.943L97.0055 122.703L90.469 114.464H62.042H33.615L30.6765 118.088L27.7375 121.712L22.1395 121.853L16.5415 121.995V111.232V100.469H22.222H27.903L30.775 104.217L33.6475 107.966L61.9695 107.965L90.2915 107.964L96.9165 99.6152L103.542 91.2668L103.539 86.4952L103.536 81.7244L97.164 73.6239L90.7915 65.5233L62.0365 65.5013L33.281 65.4795L30.612 68.9784L27.943 72.4773H22.242H16.5415V61.9806V51.4838H22.218H27.8945L30.593 54.9633L33.2915 58.4427L61.87 58.4622L90.4485 58.4817L96.995 50.2922L103.542 42.1028V37.3082V32.5133L96.946 24.2544L90.3505 15.995H61.987H33.6235L30.7075 19.7208L27.7915 23.4467L22.1665 23.4697L16.5415 23.4926V17.0342V10.5757L18.9065 8.21143C20.2075 6.91083 22.6265 5.20647 24.2815 4.42322L27.2915 3L179.819 2.99951L332.345 2.99902L335.043 4.34314ZM88.6205 71.0342C87.6145 69.8281 86.6115 68.5345 86.3915 68.1602C86.063 67.6003 81.739 67.4788 62.0925 67.4788H38.1935L32.665 74.2532C27.137 81.0275 27.137 81.0276 27.6425 82.8755C27.9205 83.8917 28.462 84.9034 28.845 85.1233C29.822 85.6836 29.712 86.8483 28.5415 88.3358C26.6345 90.7591 27.12 91.9526 32.8655 98.9669L38.1895 105.467H61.9975H85.8055L91.205 98.844C96.3165 92.5745 96.5875 92.1275 96.281 90.4716C96.1025 89.5094 95.6385 88.3672 95.249 87.9329C94.351 86.9317 94.351 86.014 95.249 85.0128C95.6385 84.5785 96.1055 83.4214 96.2875 82.4407C96.305 82.3464 96.3227 82.2583 96.3394 82.1748C96.3886 81.9294 96.4299 81.7236 96.436 81.5167C96.4679 80.4383 95.5443 79.3316 89.8062 72.4553C89.4318 72.0067 89.0369 71.5335 88.6205 71.0342ZM84.5695 117.223C87.6585 118.313 90.022 120.291 91.074 122.668C91.5765 123.804 92.688 125.251 93.5445 125.883C96.11 127.78 97.0225 129.697 96.3935 131.871C96.1015 132.881 95.565 134.063 95.202 134.497C94.3555 135.509 94.3705 135.94 95.289 136.954C95.7 137.408 96.182 138.843 96.36 140.142C96.6795 142.469 96.6495 142.535 94.275 144.746C92.95 145.979 91.48 147.85 91.008 148.903C89.976 151.208 87.635 153.066 84.399 154.15C81.0555 155.27 43.5205 155.349 39.8485 154.244C36.6285 153.275 34.107 151.227 32.97 148.658C32.446 147.474 31.3255 146.012 30.48 145.41C28.0945 143.712 27.087 141.722 27.5575 139.636C27.7745 138.673 28.31 137.489 28.747 137.006C29.7225 135.929 29.7385 135.508 28.841 134.497C28.456 134.063 27.9175 132.885 27.644 131.879C27.056 129.715 28 127.76 30.5385 125.883C31.395 125.251 32.5065 123.804 33.009 122.668C34.0315 120.357 36.408 118.323 39.337 117.25C42.3145 116.159 81.4875 116.136 84.5695 117.223ZM87.263 169.623C85.3625 169.884 85.055 169.753 83.2715 167.927L81.3385 165.948H62.0415H42.7445L40.8115 167.927C39.031 169.75 38.718 169.883 36.832 169.625L34.7855 169.344L31.0385 174.184C26.919 179.506 26.6 180.751 28.8225 182.838C30.3075 184.233 30.384 185.645 29.026 186.596C28.467 186.987 27.8095 188.006 27.5645 188.861C27.153 190.295 27.3795 190.75 30.536 194.828C35.0315 200.635 35.219 200.781 37.2065 200.019C38.746 199.428 38.847 199.476 40.7185 201.674L42.6455 203.936H62.042H81.438L83.2715 201.743C85.0635 199.599 85.1445 199.562 86.8965 200.1C88.628 200.631 88.746 200.583 90.417 198.669C91.368 197.579 93.1575 195.383 94.394 193.787C96.4185 191.174 96.6085 190.703 96.299 189.055C96.11 188.048 95.525 186.924 94.9985 186.555C93.7875 185.707 93.758 183.629 94.9475 182.993C95.446 182.726 96.0905 181.737 96.3795 180.795C96.89 179.133 96.7945 178.94 93.114 174.212L89.3225 169.341L87.263 169.623ZM66.0795 216.117C67.401 217.797 69.5565 218.056 74.4905 217.126C79.3365 216.213 84.745 216.412 87.561 217.606C89.9685 218.627 91.7785 220.544 93.3305 223.715C94.4625 226.028 94.594 226.789 94.336 229.526C93.9555 233.565 93.9555 234.59 94.3365 237.884C94.712 241.135 94.0995 243.41 91.9905 246.593C89.55 250.276 87.4165 251.16 81.0415 251.129C78.154 251.115 74.292 250.921 72.4595 250.697C68.3555 250.197 66.675 250.581 65.944 252.185C65.427 253.319 65.1085 253.42 62.0415 253.42C58.9745 253.42 58.656 253.319 58.139 252.185C57.437 250.645 55.91 250.243 52.192 250.619C50.597 250.781 46.929 251.033 44.0415 251.179C39.0305 251.433 38.6675 251.382 36.062 250.058C32.5575 248.278 30.396 245.206 29.5745 240.837C29.082 238.219 29.104 237.382 29.7015 235.966C30.3315 234.472 30.33 233.984 29.6885 232.102C29.104 230.388 29.065 229.432 29.496 227.422C31.526 217.959 37.6605 214.938 50.181 217.235C54.97 218.114 57.0685 217.75 58.078 215.864C58.487 215.101 59.169 214.932 61.862 214.932C64.7225 214.932 65.268 215.085 66.0795 216.117ZM22.8775 226.1C24.1625 224.494 25.4275 222.899 25.689 222.555C26.0615 222.065 25.0325 221.93 20.907 221.93C15.7235 221.93 15.6455 221.948 15.338 223.173C14.886 224.973 12.925 226.084 10.67 225.818C8.99351 225.62 8.4285 225.889 5.4165 228.318L2.0415 231.04V233.962V236.883L5.4165 239.583C8.4365 241.999 8.98901 242.259 10.67 242.048C12.925 241.767 14.8835 242.871 15.338 244.68C15.6455 245.905 15.7235 245.923 20.907 245.923C25.0385 245.923 26.06 245.789 25.678 245.298C25.4105 244.955 24.1455 243.371 22.867 241.78L20.5415 238.886V233.953V229.02L22.8775 226.1ZM26.0415 172.765C26.0415 172.941 24.804 174.616 23.2915 176.488L20.5415 179.89V184.759V189.628L22.8795 192.658C24.1655 194.325 25.4305 195.97 25.6905 196.313C26.062 196.804 25.021 196.938 20.8525 196.938C16.556 196.938 15.5415 196.8 15.5415 196.216C15.5415 194.699 13.3265 192.84 11.5245 192.844C10.5715 192.846 9.547 192.924 9.2485 193.018C8.9495 193.112 7.20852 191.952 5.37952 190.44L2.0535 187.691L2.04752 184.875L2.0415 182.06L5.27802 179.298C8.25801 176.755 8.66799 176.557 10.456 176.797C12.9315 177.128 14.4385 176.314 15.3405 174.155L16.055 172.446H21.048C23.7945 172.446 26.0415 172.59 26.0415 172.765ZM22.958 127.781C24.287 126.092 25.5375 124.43 25.7375 124.086C26.0175 123.604 24.965 123.461 21.1205 123.461H16.1405L15.103 125.218C13.9145 127.232 12.188 128.064 10.0735 127.641C8.82652 127.392 8.11499 127.752 5.35699 130.028L2.10849 132.708L2.07501 135.54L2.0415 138.372L5.272 141.207C8.1555 143.738 8.66949 144.006 10.055 143.702C12.235 143.223 14.2385 144.208 15.204 146.232L16.0255 147.953H21.0335C23.788 147.953 26.0415 147.829 26.0415 147.677C26.0415 147.525 24.804 145.869 23.2915 143.998L20.5415 140.595V135.723V130.851L22.958 127.781ZM25.689 75.1014C25.4275 75.4453 24.1625 77.0404 22.8775 78.6464L20.5415 81.5659V86.5897V91.6132L22.6745 94.1665C23.0355 94.5987 23.3655 94.988 23.6626 95.3384C25.0221 96.9422 25.6936 97.7344 25.5102 98.1217C25.3311 98.4998 24.3372 98.492 22.373 98.4764C21.9335 98.473 21.4454 98.4691 20.907 98.4691C15.7235 98.4691 15.6455 98.4516 15.338 97.226C14.874 95.378 12.9005 94.2904 10.5765 94.6023C8.78901 94.8417 8.36801 94.6403 5.33701 92.0936L2.0415 89.325V86.5052C2.0415 83.7576 2.10199 83.6347 4.39749 81.7053L4.46203 81.6511C7.83628 78.8148 8.63298 78.1452 9.37762 78.1988C9.60778 78.2153 9.83297 78.301 10.1278 78.4132L10.1465 78.4203C11.9065 79.0891 14.4905 77.841 15.192 75.983L15.7605 74.4766H20.9625C25.0435 74.4766 26.0615 74.6111 25.689 75.1014ZM13.7855 99.4878C13.957 98.9485 13.8515 98.0487 13.5515 97.4884C13.2515 96.9281 12.6765 96.4697 12.274 96.4697C11.647 96.4697 11.5415 98.5985 11.5415 111.215C11.5415 120.48 11.723 125.96 12.03 125.96C12.8415 125.96 14.086 123.66 13.7495 122.782C13.538 122.231 13.6985 121.962 14.238 121.962C14.951 121.962 15.0415 120.753 15.0415 111.215C15.0415 101.791 14.945 100.469 14.258 100.469C13.7065 100.469 13.5665 100.178 13.7855 99.4878ZM13.259 146.418C13.8165 147.034 14.013 147.756 13.803 148.417C13.566 149.164 13.6925 149.453 14.258 149.453C14.945 149.453 15.0415 150.775 15.0415 160.2C15.0415 169.624 14.945 170.946 14.258 170.946C13.7065 170.946 13.5665 171.237 13.7855 171.927C14.1695 173.137 13.264 174.945 12.274 174.945C11.647 174.945 11.5415 172.816 11.5415 160.2C11.5415 152.09 11.7315 145.454 11.964 145.454C12.1965 145.454 12.779 145.888 13.259 146.418ZM13.7075 197.857C13.863 197.262 13.783 196.389 13.5295 195.917C13.2765 195.444 12.7255 194.924 12.3055 194.763C11.6305 194.504 11.5415 196.221 11.5415 209.468C11.5415 223.997 11.571 224.449 12.4825 223.961C13.642 223.341 14.16 222.092 13.769 220.86C13.567 220.224 13.7215 219.931 14.258 219.931C14.9445 219.931 15.0415 218.632 15.0415 209.434C15.0415 200.101 14.952 198.938 14.233 198.938C13.651 198.938 13.504 198.636 13.7075 197.857ZM13.5515 244.942C13.8515 245.502 13.957 246.402 13.7855 246.942C13.5665 247.631 13.7065 247.922 14.258 247.922C14.963 247.922 15.0395 251.868 15.0215 287.285C15.0206 289.008 15.02 290.659 15.0193 292.242C15.0091 317.5 15.006 325.102 14.2509 325.178C13.9258 325.21 13.4612 323.847 12.7966 321.897C12.6999 321.613 12.5989 321.316 12.4935 321.01C11.591 318.387 11.5415 316.319 11.5415 281.083C11.5415 248.782 11.6375 243.923 12.274 243.923C12.6765 243.923 13.2515 244.382 13.5515 244.942ZM22.4165 335.927C19.865 334.812 15.318 329.831 13.5235 326.187C12.633 324.378 11.8225 322.899 11.723 322.899C11.623 322.899 11.5415 324.309 11.5415 326.034V329.169L15.677 333.281C19.5485 337.132 19.9475 337.394 21.927 337.394C24.458 337.394 24.625 336.894 22.4165 335.927ZM343.406 333.273C339.315 337.364 339.169 337.456 337.058 337.302L334.899 337.144L337.394 335.533C340.864 333.293 343.751 330.006 345.665 326.116L347.292 322.809L347.443 325.948L347.594 329.087L343.406 333.273ZM347.292 19.7438L345.944 16.8698C345.203 15.2892 344.472 13.9956 344.319 13.9956C344.167 13.9956 344.049 84.3425 344.058 170.322C344.058 179.166 344.059 187.521 344.059 195.411V195.42C344.065 304.72 344.066 324.986 345.173 325.047C345.425 325.061 345.734 324.027 346.114 322.759L346.114 322.758C346.235 322.356 346.362 321.93 346.497 321.507L347.567 318.15L347.429 168.947L347.292 19.7438ZM343.656 6.86133L347.542 10.723L347.527 13.9841L347.513 17.2446L345.652 13.7493C343.617 9.92447 339.283 5.2323 336.538 3.88123L334.792 3.02197L337.281 3.0105C339.721 2.999 339.846 3.07452 343.656 6.86133ZM20.943 31.801C21.164 31.6641 22.4165 30.1891 23.7265 28.5226L26.108 25.4919H20.9465H15.7855L15.1065 27.0255C14.3125 28.819 12.455 29.6773 10.1595 29.3114C8.73452 29.0845 8.11552 29.4008 5.28452 31.8015L2.0415 34.5516L2.04752 37.3948L2.0535 40.2373L5.33151 42.9554C8.40201 45.5011 8.76151 45.6652 11.0125 45.5458C13.1065 45.4348 13.5525 45.5922 14.4785 46.7688C15.063 47.5121 15.5415 48.4267 15.5415 48.8021C15.5415 49.3355 16.6885 49.4845 20.7915 49.4845C23.679 49.4845 26.0415 49.402 26.0415 49.301C26.0415 49.2001 24.8055 47.5695 23.2945 45.6771L20.547 42.2367L20.5445 37.1428C20.543 34.3412 20.7225 31.9375 20.943 31.801ZM36.236 68.1036C35.884 68.7069 32.0785 73.468 31.5415 73.9768C31.3965 74.1143 30.3035 75.4078 29.113 76.8508C27.9225 78.2939 26.7445 79.4751 26.495 79.4751C25.3125 79.4751 26.3815 77.5132 30.1665 72.7382C33.2155 68.8914 34.5925 67.5262 35.446 67.5062C36.235 67.4872 36.485 67.6768 36.236 68.1036ZM26.449 85.4357C26.9885 84.5719 26.96 83.9866 26.279 81.9368C25.829 80.5827 25.2965 79.4751 25.0955 79.4751C24.894 79.4751 24.237 80.1408 23.6355 80.9546C22.7125 82.2022 22.5445 83.0814 22.5595 86.5778C22.5755 90.2366 22.7225 90.897 23.8165 92.2211C25.2255 93.9265 25.6485 93.6396 26.5565 90.3636C26.941 88.9756 26.9105 88.2488 26.436 87.4895C25.9215 86.6658 25.924 86.2764 26.449 85.4357ZM31.6245 99.1223C33.872 101.924 35.925 104.499 36.1875 104.842C36.537 105.301 36.3485 105.464 35.4775 105.455C34.576 105.446 33.29 104.184 30.117 100.196C27.4385 96.8286 26.049 94.6723 26.2385 94.178C26.663 93.0728 27.0795 93.4551 31.6245 99.1223ZM101.542 86.4729C101.542 83.4723 101.332 82.4786 100.417 81.134C99.798 80.2253 99.1415 79.4806 98.958 79.4786C98.7745 79.4766 98.2345 80.4952 97.758 81.7423C97.021 83.6722 96.99 84.193 97.551 85.2412C98.0905 86.2484 98.0935 86.6917 97.568 87.6729C97.0385 88.662 97.051 89.251 97.6395 91.016C98.0325 92.1941 98.565 93.2267 98.823 93.3107C99.0805 93.3946 99.798 92.7199 100.417 91.8116C101.332 90.4671 101.542 89.474 101.542 86.4729ZM93.9 72.9005C97.7985 77.71 98.453 78.9562 97.2605 79.2966C96.85 79.4136 88.086 69.0072 87.611 67.8391C87.5115 67.5947 87.9425 67.4698 88.569 67.5618C89.3075 67.6697 91.183 69.5481 93.9 72.9005ZM93.9165 100.208C96.1855 97.3454 98.0415 94.7843 98.0415 94.5164C98.0415 92.8809 96.544 94.1 92.3165 99.1764C89.69 102.33 87.5415 105.035 87.5415 105.188C87.5415 105.341 88.048 105.454 88.6665 105.439C89.482 105.419 90.926 103.98 93.9165 100.208ZM35.4935 118.088C34.3245 118.981 32.884 120.612 32.2935 121.712C31.395 123.384 26.831 128.46 26.2255 128.46C25.395 128.46 26.675 126.367 30.291 121.814C34.0415 117.091 34.721 116.463 36.0795 116.463H37.619L35.4935 118.088ZM26.488 134.772C27.1185 134.012 27.007 133.098 25.9475 130.334C25.291 128.623 24.887 128.613 23.578 130.277C22.722 131.364 22.542 132.3 22.544 135.65C22.546 139.224 22.6935 139.884 23.782 141.206C24.8225 142.468 25.0985 142.587 25.53 141.955C26.611 140.372 27.097 137.532 26.4615 136.515C25.979 135.742 25.9845 135.379 26.488 134.772ZM28.836 145.329C30.2145 146.635 31.6285 148.408 31.978 149.27C32.699 151.044 34.581 152.949 36.7915 154.143L38.2915 154.953L36.3155 154.827C34.4485 154.708 34.112 154.412 30.2095 149.453C26.7365 145.04 25.4455 142.955 26.1855 142.955C26.2645 142.955 27.4575 144.023 28.836 145.329ZM101.528 135.65C101.539 132.29 101.364 131.367 100.505 130.277C99.9355 129.552 99.268 128.959 99.023 128.959C97.8305 128.959 96.657 133.642 97.5725 134.745C98.066 135.339 98.0635 135.732 97.5595 136.673C97.033 137.656 97.074 138.296 97.803 140.49L98.6785 143.125L100.096 141.416C101.393 139.852 101.516 139.36 101.528 135.65ZM97.0415 135.707C97.0415 136.12 96.704 136.457 96.2915 136.457C95.879 136.457 95.5415 136.12 95.5415 135.707C95.5415 135.295 95.879 134.958 96.2915 134.958C96.704 134.958 97.0415 135.295 97.0415 135.707ZM27.7915 136.457C28.204 136.457 28.5415 136.12 28.5415 135.707C28.5415 135.295 28.204 134.958 27.7915 134.958C27.379 134.958 27.0415 135.295 27.0415 135.707C27.0415 136.12 27.379 136.457 27.7915 136.457ZM93.9025 122.07C96.2225 125.017 97.9995 127.623 97.8515 127.863C97.445 128.52 92.929 123.981 91.8165 121.797C90.91 120.018 89.5345 118.606 87.2335 117.094C86.3975 116.544 86.482 116.488 87.988 116.594C89.4995 116.7 90.1435 117.297 93.9025 122.07ZM87.684 154.951C89.323 154.951 89.728 154.584 93.8005 149.413C96.199 146.367 97.966 143.724 97.7265 143.54C97.0915 143.051 92.962 147.294 91.7635 149.667C91.147 150.888 89.773 152.353 88.332 153.327L85.9285 154.951H87.684ZM41.0415 166.361C41.0415 166.588 40.5185 167.264 39.879 167.865C38.995 168.695 38.3505 168.884 37.19 168.651C34.992 168.212 33.987 168.946 30.271 173.703C27.3205 177.481 26.0415 178.442 26.0415 176.884C26.0415 176.609 27.884 174.035 30.136 171.166L34.2305 165.948H37.636C39.509 165.948 41.0415 166.134 41.0415 166.361ZM23.263 189.441C24.538 189.441 25.5415 187.338 25.5415 184.668C25.5415 182.645 25.301 181.891 24.3795 181.026C23.7405 180.425 23.0655 180.086 22.8795 180.272C22.6935 180.458 22.5415 182.597 22.5415 185.025C22.5415 188.54 22.6885 189.441 23.263 189.441ZM25.961 179.217C26.2805 179.918 26.5415 180.961 26.5415 181.536C26.5415 182.384 26.3025 182.23 25.283 180.729C24.128 179.027 24.014 177.944 24.991 177.944C25.2055 177.944 25.642 178.517 25.961 179.217ZM27.212 186.092C28.2195 186.478 29.1635 185.694 28.96 184.638C28.7745 183.675 27.5125 183.138 26.892 183.758C26.301 184.349 26.5025 185.82 27.212 186.092ZM26.214 189.69C25.4115 192.046 24.8555 192.478 24.3435 191.145C24.059 190.404 25.85 187.532 26.636 187.469C26.8255 187.454 26.636 188.453 26.214 189.69ZM34.175 200.937L30.733 196.467C27.231 191.918 26.8355 191.559 26.294 192.436C25.8965 193.079 26.0965 193.393 30.5415 199.093L34.2915 203.901L38.01 203.918L41.7285 203.936L40.2915 202.436C39.0955 201.189 38.4615 200.937 36.5145 200.937H34.175ZM97.7915 192.866C97.7915 193.193 95.918 195.817 93.628 198.698L89.464 203.936H85.9095H82.3545L83.7915 202.436C84.988 201.188 85.621 200.937 87.571 200.937H89.9135L93.3525 196.457C96.505 192.351 97.7915 191.31 97.7915 192.866ZM99.669 188.783C101.043 190.156 101.542 189.067 101.542 184.692C101.542 182.388 101.346 180.382 101.108 180.235C100.652 179.952 99.512 181.072 98.6965 182.604C98.0565 183.805 98.6855 187.8 99.669 188.783ZM100.021 190.504C100.032 190.677 99.7305 191.076 99.3505 191.391C98.7945 191.852 98.502 191.57 97.8505 189.942C97.4055 188.831 97.0415 187.653 97.0415 187.325C97.0415 186.744 99.981 189.88 100.021 190.504ZM95.712 186.092C96.7195 186.478 97.6635 185.694 97.46 184.638C97.2745 183.675 96.0125 183.138 95.392 183.758C94.801 184.349 95.0025 185.82 95.712 186.092ZM99.871 178.725C99.949 178.983 99.331 179.981 98.497 180.943C97.131 182.52 97.016 182.569 97.3285 181.443C98.053 178.83 98.5675 177.87 99.1385 178.06C99.463 178.168 99.793 178.467 99.871 178.725ZM98.0415 176.901C98.0415 176.634 96.1855 174.069 93.9165 171.2L89.7915 165.984L86.4165 165.966C84.5605 165.956 83.0415 166.134 83.0415 166.361C83.0415 166.588 83.5745 167.274 84.2265 167.886C85.0935 168.7 85.754 168.912 86.69 168.677C88.8815 168.128 89.971 168.886 93.6035 173.49C96.724 177.444 98.0415 178.457 98.0415 176.901ZM29.0215 232.653C29.7935 233.583 29.5295 234.919 28.438 235.607C27.788 236.015 27.0725 235.895 25.438 235.104L23.2915 234.064L25.0415 232.998C27.0945 231.746 28.19 231.651 29.0215 232.653ZM26.5415 237.494C26.5415 236.975 25.813 236.264 24.7745 235.769L24.6407 235.705C23.4837 235.153 22.9641 234.905 22.7309 235.068C22.5409 235.2 22.5411 235.606 22.5415 236.341L22.5415 236.446C22.5415 237.833 24.2765 240.924 25.0555 240.924C25.514 240.924 26.5415 238.554 26.5415 237.494ZM25.9925 228.503C26.7865 230.779 26.701 231.117 25.0895 232.069C23.044 233.277 22.5415 233.146 22.5415 231.407C22.5415 229.992 24.2825 226.929 25.0865 226.929C25.283 226.929 25.6905 227.637 25.9925 228.503ZM28.4545 229.053C28.6325 224.724 30.709 220.722 34.5825 217.24C37.099 214.978 37.1215 214.933 35.7205 214.96C34.516 214.983 33.64 215.809 30.1435 220.22L25.995 225.454L26.8935 228.187C27.3875 229.69 27.9235 230.922 28.0845 230.924C28.2455 230.926 28.4125 230.084 28.4545 229.053ZM28.4545 238.8C28.6305 243.08 30.6185 246.954 34.4995 250.583C35.8975 251.891 37.0415 253.064 37.0415 253.191C37.0415 253.317 36.517 253.42 35.8765 253.42C34.9915 253.42 33.653 252.091 30.3135 247.893L25.9155 242.366L26.686 240.52C27.11 239.505 27.581 238.282 27.7335 237.8C28.159 236.455 28.3705 236.748 28.4545 238.8ZM57.4185 252.796C57.3055 252.452 56.668 251.893 56.002 251.553C54.4735 250.774 53.055 250.815 49.2915 251.749C47.371 252.226 44.731 252.426 41.9545 252.305C38.366 252.149 37.7625 252.226 38.4545 252.753C39.6495 253.661 57.7175 253.702 57.4185 252.796ZM74.4375 251.725C77.0215 252.265 79.658 252.447 82.4385 252.279C86.008 252.064 86.46 252.123 85.6885 252.709C84.6185 253.52 66.5415 253.747 66.5415 252.949C66.5415 252.262 68.6135 250.921 69.674 250.921C70.174 250.921 72.318 251.283 74.4375 251.725ZM98.1275 242.337L97.0265 239.756C95.601 236.415 95.5415 236.377 95.5415 238.823C95.5415 242.497 93.71 246.3 90.218 249.878C88.471 251.668 87.0415 253.198 87.0415 253.276C87.0415 253.355 87.548 253.417 88.1665 253.414C88.996 253.409 90.4515 251.954 93.7095 247.872L98.1275 242.337ZM101.526 236.551C101.509 238.304 99.272 241.387 98.5765 240.616C98.3575 240.373 97.934 239.443 97.6355 238.549C97.1115 236.98 97.1575 236.889 98.942 235.947C101.417 234.64 101.544 234.67 101.526 236.551ZM100.039 234.06C100.037 233.849 99.3435 233.283 98.498 232.802C96.627 231.737 95.8495 231.704 95.0615 232.653C94.291 233.581 94.553 234.919 95.6395 235.603C96.272 236.001 96.939 235.921 98.2645 235.29C99.242 234.824 100.04 234.271 100.039 234.06ZM101.542 231.435C101.542 233.192 100.911 233.3 98.6585 231.928L97.026 230.932L97.7835 229.12C98.2005 228.122 98.548 227.165 98.556 226.993C98.564 226.82 99.239 227.414 100.056 228.311C101.007 229.356 101.542 230.481 101.542 231.435ZM95.7235 222.734C94.4205 221.055 92.5525 218.625 91.573 217.335C90.256 215.601 89.4435 214.982 88.4565 214.961C87.194 214.934 87.2765 215.089 89.9785 217.807C93.265 221.113 95.037 224.504 95.5275 228.428C95.779 230.44 95.971 230.909 96.243 230.178C96.447 229.628 96.947 228.415 97.3535 227.483C98.0885 225.798 98.079 225.771 95.7235 222.734ZM85.789 215.428C85.987 215.749 84.8045 215.819 82.4435 215.627C79.91 215.42 77.748 215.575 75.3855 216.131C71.064 217.147 68.334 217.153 67.327 216.147C66.895 215.714 66.5415 215.264 66.5415 215.147C66.5415 214.676 85.495 214.953 85.789 215.428ZM48.6975 216.131C53.3565 217.227 55.671 217.17 56.7915 215.932C57.6935 214.936 57.665 214.932 48.1485 214.932C42.8475 214.932 38.4735 215.138 38.315 215.394C38.145 215.669 39.497 215.75 41.6605 215.593C44.094 215.416 46.4145 215.593 48.6975 216.131Z" fill="black"/>
</svg>
