<svg width="64" height="65" viewBox="0 0 64 65" fill="none" xmlns="http://www.w3.org/2000/svg">
<path fill-rule="evenodd" clip-rule="evenodd" d="M28.7658 0.948498C28.9784 1.76945 28.5585 1.96396 25.4852 2.47043C23.547 2.78941 21.0706 3.45884 19.9825 3.95781L18.0042 4.86478L22.0355 4.93926C26.6613 5.02475 31.0888 5.76623 31.8351 6.58018C32.209 6.98815 31.8796 7.04714 30.616 6.79816C19.2303 4.55829 8.91733 6.23121 4.65011 11.0099C3.84395 11.9124 4.11844 11.8339 6.13434 10.5859C7.49443 9.74448 9.26948 8.89503 10.0786 8.69855C11.5154 8.35007 11.4966 8.39409 9.29271 10.549C-3.28837 22.8497 -3.06579 42.9355 9.78483 54.9238L11.5747 56.5937L10.091 56.2742C9.27492 56.0987 7.50976 55.2748 6.16797 54.4433C4.81332 53.6039 4.0403 53.3119 4.42954 53.7859C5.57795 55.1848 8.5736 56.8957 11.9066 58.0571C15.5358 59.3215 23.8477 59.582 28.8449 58.5886C32.0394 57.9531 32.7901 58.0951 31.0932 59.013C30.4928 59.3375 27.332 59.7275 24.0692 59.8795C18.8415 60.123 18.2753 60.2335 19.3069 60.8069C20.4321 61.4334 23.4203 62.1674 27.2276 62.7523C28.7247 62.9823 28.9893 63.1983 28.7776 64.0163C28.3221 65.7771 29.4997 65.0607 30.8281 62.7688C32.6284 59.664 37.2893 54.6893 39.7162 53.2829C41.9359 51.9969 48.3219 50.2346 48.8392 50.765C49.8036 51.755 40.4294 57.5981 36.7606 58.2936C35.7551 58.4846 34.5582 59.221 33.8278 60.098C31.8549 62.4688 32.1541 62.9218 35.358 62.4138C39.002 61.8364 43.1159 60.109 46.8995 57.5686L49.9742 55.5037L52.2241 53.0039L53.1445 51.9755C54.0936 50.9155 54.1559 50.9165 58.436 52.051C59.4563 52.3214 60.2907 52.6464 60.2907 52.7734L63.5054 52.7539L59.5488 51.254C57.3726 50.4291 55.5036 49.7021 55.3958 49.6391C55.288 49.5756 56.0106 47.8882 57.0022 45.8893C58.9306 42.0021 60.2907 36.4659 60.2907 32.5051C60.2907 28.5924 58.9385 23.0252 57.0729 19.2559C55.0832 15.2367 55.0382 15.0132 56.2104 14.9862C56.6862 14.9757 58.6338 14.3237 60.538 13.5383L64 12.1104L61.0325 12.0858L57.6274 13.0898L54.2222 14.0932L53.19 13.0498L52.1578 12.0064L49.1671 9.01402C49.0019 8.74354 47.3753 7.63362 45.5522 6.54819C40.4808 3.52737 32.5943 1.21601 32.5943 2.74992C32.5943 4.11334 35.0439 6.39118 36.8862 6.74016C40.5402 7.43312 49.8254 13.2323 48.8634 14.2207C48.487 14.6072 43.3469 13.4013 40.873 12.3463C38.3284 11.2609 33.9237 6.93917 31.4988 3.1484C29.5343 0.0780814 28.2791 -0.932389 28.7658 0.948498ZM36.7655 11.2654C35.9089 10.6044 33.4514 9.6155 31.3044 9.06754C29.1579 8.51957 25.8433 7.94459 23.9392 7.7906C20.8663 7.54161 20.1715 7.6611 17.7569 8.85203C13.9452 10.7329 8.53898 16.3711 6.48203 20.6123C4.80541 24.0686 3.43148 29.4253 3.43148 32.5051C3.43148 35.5235 4.78217 40.8666 6.43357 44.3774C8.46678 48.7017 13.8077 54.1793 17.9518 56.1902C20.5825 57.4671 21.1849 57.5716 24.134 57.2666C28.786 56.7852 35.1423 55.0863 36.3036 54.0144C38.8161 51.6955 43.1609 49.9881 47.6789 49.5451C50.5598 49.2626 50.6924 49.1846 52.2206 46.8733C55.3177 42.1885 56.0487 39.4442 56.0487 32.5051C56.0487 25.566 55.3177 22.8217 52.2206 18.137C50.6597 15.7761 50.6182 15.7532 47.3208 15.4237C43.8415 15.0762 39.4788 13.3573 36.7655 11.2654Z" fill="black"/>
</svg>
