<svg width="42" height="43" viewBox="0 0 42 43" fill="none" xmlns="http://www.w3.org/2000/svg">
<path d="M40.9612 1.84V41.84H34.3315C31.7219 38.6736 26.7244 36.5319 21.0015 36.5319C15.2786 36.5319 10.2912 38.6736 7.68158 41.84H1.02161V1.84H7.68158C10.2912 5.00639 15.2786 7.14809 21.0015 7.14809C26.7244 7.14809 31.6917 5.00639 34.3315 1.84H40.9612Z" stroke="black" stroke-width="2" stroke-miterlimit="10"/>
<path d="M40.9621 1.84V9.6406C38.9736 6.90624 36.3437 4.61333 33.2644 2.9293C33.6266 2.58742 33.9632 2.22349 34.2719 1.84H40.9621Z" fill="black"/>
<path d="M8.69029 40.7507C8.32768 41.0923 7.99104 41.4562 7.68274 41.84H1.02278V34.0394C2.99997 36.7727 5.61986 39.0659 8.69029 40.7507V40.7507Z" fill="black"/>
<path d="M7.65235 1.84C7.9581 2.2256 8.29489 2.58971 8.6599 2.9293C5.5785 4.61082 2.94801 6.90422 0.962158 9.6406V1.84H7.65235Z" fill="black"/>
<path d="M40.9622 34.0394V41.84H34.3324C34.0212 41.4583 33.6847 41.0946 33.3249 40.7507C36.3843 39.0626 38.9936 36.7697 40.9622 34.0394V34.0394Z" fill="black"/>
<path d="M20.9722 36.5319C23.9685 36.5197 26.9261 37.1521 29.607 38.3782C26.9139 39.5628 23.9647 40.1779 20.9773 40.1779C17.9899 40.1779 15.0407 39.5628 12.3475 38.3782C15.0242 37.1506 17.979 36.5181 20.9722 36.5319V36.5319Z" stroke="black" stroke-miterlimit="10"/>
<path d="M20.9722 7.14808C17.979 7.16193 15.0242 6.52941 12.3475 5.30178C15.0407 4.11717 17.9899 3.50214 20.9773 3.50214C23.9647 3.50214 26.9139 4.11717 29.607 5.30178C26.9261 6.52787 23.9685 7.16027 20.9722 7.14808V7.14808Z" stroke="black" stroke-miterlimit="10"/>
</svg>
