<svg width="54" height="53" viewBox="0 0 54 53" fill="none" xmlns="http://www.w3.org/2000/svg">
<path fill-rule="evenodd" clip-rule="evenodd" d="M0 26.4917V52.9834H6.55901C13.0875 52.9834 13.1255 52.9764 14.7735 51.5303C16.382 50.1183 16.487 50.0968 18.446 50.7716C19.555 51.1534 21.4275 51.5998 22.6065 51.7637C23.7855 51.9277 25.261 52.3091 25.885 52.6125C26.7275 53.0208 27.1725 53.0109 27.61 52.5735C27.9345 52.2491 28.81 51.9837 29.5555 51.9837C30.301 51.9837 32.295 51.5528 33.9865 51.0265L37.0625 50.0698L38.722 51.5264C40.375 52.9774 40.409 52.9834 46.941 52.9834H53.5V50.4841V47.9849V44.9859V43.7363V42.4867V26.4917V10.4967V9.2471V7.9975V5.24835L53.599 2.62418L53.4475 0H46.8725H40.2975L38.7085 1.53952L37.1195 3.07954L34.8095 2.29529C33.539 1.86392 31.5435 1.36558 30.375 1.18713C29.206 1.00919 27.961 0.635312 27.608 0.3564C27.1735 0.0130073 26.6075 0.0154973 25.858 0.363388C25.2485 0.646299 23.2875 1.22361 21.5 1.64598C19.7125 2.06885 17.8 2.55219 17.25 2.72064C16.55 2.93507 15.7705 2.5727 14.652 1.51353L13.054 0H6.52699H0V26.4917ZM15.077 5.78719C13.7625 5.12139 12.3925 4.22168 12.0325 3.78781C11.1775 2.75813 9.72401 2.80562 7.21201 3.94626C3.53951 5.61374 3.5 5.85516 3.5 26.4917C3.5 46.5269 3.58701 47.1382 6.71001 49.0416C8.95301 50.4092 10.7 50.2073 13.544 48.2514C14.93 47.2987 16.784 46.3834 17.6645 46.2185C18.5445 46.0535 23.2195 45.9896 28.053 46.077L36.841 46.2355L39.663 48.1099C42.8195 50.2068 43.979 50.3772 46.4575 49.1086C49.93 47.3317 50 46.8918 50 26.8581C50 7.45265 49.9045 6.67491 47.26 4.59557C45.0335 2.84512 42.846 2.68815 40.907 4.1402C37.2315 6.89133 36.7045 6.9978 26.758 6.9978C17.9185 6.9978 17.3505 6.93882 15.077 5.78719ZM34.225 49.446C33.3675 50.2792 28.4035 50.932 27.4505 50.3372C26.8235 49.9458 26.3955 49.9478 25.9155 50.3447C25.446 50.7331 24.4395 50.7496 22.5 50.4012C17.2205 49.453 18.626 48.9846 26.75 48.9846C31.6185 48.9846 34.516 49.1636 34.225 49.446ZM26.875 3.98375C33.1145 3.97125 34.5425 3.8473 33.75 3.38594C31.813 2.25729 19 2.58519 19 3.76332C19 3.89278 22.5435 3.99175 26.875 3.98375Z" fill="black"/>
</svg>
