<svg width="312" height="96" viewBox="0 0 312 96" fill="none" xmlns="http://www.w3.org/2000/svg">
<path fill-rule="evenodd" clip-rule="evenodd" d="M0 44.3677V87.7741L1.97198 88.4244C4.69698 89.3236 7.40701 91.6844 7.90051 93.5888L8.31351 95.1818H156H303.687L304.097 93.5988C304.592 91.6909 306.616 89.8964 309.708 88.6248L311.997 87.6842L311.998 44.3228L312 0.961395H308.775C306.579 0.961395 305.422 1.17932 305.15 1.64368C303.699 4.1189 297.452 4.4273 292.711 2.25748L289.879 0.961395H156H22.121L19.289 2.25748C14.567 4.4188 7.58751 4.07341 6.65051 1.63217C6.47201 1.16782 5.41 0.961395 3.1965 0.961395H0V44.3677ZM9.54849 5.49597C8.06249 4.94265 6.36049 4.03394 5.76599 3.47562C5.14699 2.8943 4.00549 2.46091 3.09299 2.46091H1.5L1.50549 10.5834C1.50949 16.575 1.845 21.0661 2.785 27.703C3.9355 35.833 4.08651 38.796 4.35101 58.4369L4.64401 80.174L6.58499 82.8012C10.5475 88.163 15.2195 91.7723 19.5965 92.853C22.9715 93.6862 289.029 93.6862 292.404 92.853C296.767 91.7753 301.404 88.2 305.428 82.8087L307.386 80.1865L307.664 58.4433C307.916 38.7425 308.061 35.8549 309.215 27.703C310.155 21.0661 310.491 16.575 310.495 10.5834L310.5 2.46091H308.907C307.995 2.46091 306.853 2.8943 306.234 3.47562C305.64 4.03394 303.938 4.94265 302.452 5.49597C299.387 6.63661 298.451 6.49114 292.25 3.91345L288.75 2.4584H156H23.25L19.75 3.91345C13.549 6.49114 12.613 6.63661 9.54849 5.49597ZM2.72751 35.2016C3.34401 41.2922 3.50299 47.3083 3.39349 60.4427C3.25399 77.183 3.2245 77.6403 2.375 76.0878C1.576 74.6273 1.5 72.4095 1.5 50.6373C1.5 37.5194 1.59401 26.8807 1.70901 26.9957C1.82401 27.1107 2.28251 30.8035 2.72751 35.2016ZM14.026 92.4326C12.9005 92.4326 7.40351 87.1978 5.17651 84.0053C3.84201 82.0919 2.47551 80.113 2.14001 79.6071C1.63651 78.8474 1.54951 79.3398 1.64001 82.4303L1.75 86.1737L4.0155 87.2468C6.1905 88.2775 10 91.8979 10 92.9341C10 93.208 11.0125 93.4323 12.25 93.4323C13.4875 93.4323 14.5 93.2074 14.5 92.9325C14.5 92.6576 14.2865 92.4326 14.026 92.4326ZM309.63 76.0783L308.75 77.6873L308.585 75.438C308.17 69.7918 308.915 36.3678 309.56 31.7018C310.216 26.9522 310.257 27.8934 310.38 50.5863C310.5 72.5864 310.441 74.5963 309.63 76.0783ZM307.905 87.3178C309.09 86.7919 310.17 86.0732 310.306 85.7208C310.441 85.3679 310.484 83.6819 310.401 81.9734L310.25 78.8674L308.033 82.2759C305.674 85.9008 300.116 91.6704 298.481 92.1888C296.736 92.7426 297.44 93.4323 299.75 93.4323C300.988 93.4323 302 93.208 302 92.9341C302 91.8884 305.844 88.232 307.905 87.3178Z" fill="black"/>
</svg>
