<svg width="156" height="47" viewBox="0 0 156 47" fill="none" xmlns="http://www.w3.org/2000/svg">
<path d="M143.537 33.3839H36.0535V10.296H143.546" stroke="black" stroke-width="0.87" stroke-miterlimit="10"/>
<path d="M150.962 13.6378V30.0237C149.761 31.042 148.644 32.1629 147.621 33.3747C146.647 34.5322 145.76 35.7668 144.969 37.0673H36.0535V6.60342H144.943C145.737 7.90189 146.623 9.13623 147.594 10.296C148.628 11.5037 149.754 12.6214 150.962 13.6378V13.6378Z" stroke="black" stroke-miterlimit="10"/>
<g filter="url(#filter0_d)">
<path d="M150.962 13.6378V30.0237C149.761 31.042 148.644 32.1629 147.621 33.3747C146.647 34.5322 145.76 35.7668 144.969 37.0673H36.0535V6.60342H144.943C145.737 7.90189 146.623 9.13623 147.594 10.296C148.628 11.5037 149.754 12.6214 150.962 13.6378V13.6378Z" stroke="black" stroke-width="2" stroke-miterlimit="10"/>
</g>
<path d="M150.962 21.8354C150.962 27.5589 145.889 32.8393 137.332 37.0673H36.0535V6.60342H137.35C145.888 10.8314 150.962 16.1119 150.962 21.8354Z" stroke="black" stroke-width="0.87" stroke-miterlimit="10"/>
<path d="M38.8555 10.296V33.3747" stroke="black" stroke-width="0.87" stroke-miterlimit="10"/>
<path d="M36.0525 1.84V41.84H30.2364C27.947 38.6736 23.5628 36.5319 18.5422 36.5319C13.5216 36.5319 9.14621 38.6736 6.85687 41.84H1.0142V1.84H6.85687C9.14621 5.00639 13.5216 7.14809 18.5422 7.14809C23.5628 7.14809 27.9205 5.00639 30.2364 1.84H36.0525Z" stroke="black" stroke-width="2" stroke-miterlimit="10"/>
<path d="M36.0534 1.84V9.6406C34.309 6.90624 32.0018 4.61333 29.3003 2.9293C29.6181 2.58742 29.9134 2.22349 30.1842 1.84H36.0534Z" fill="black"/>
<path d="M7.7418 40.7507C7.42368 41.0923 7.12836 41.4562 6.85789 41.84H1.01522V34.0394C2.74978 36.7727 5.04816 39.0659 7.7418 40.7507V40.7507Z" fill="black"/>
<path d="M6.83134 1.84C7.09958 2.2256 7.39504 2.58971 7.71526 2.9293C5.01199 4.61082 2.70431 6.90422 0.962158 9.6406V1.84H6.83134Z" fill="black"/>
<path d="M36.0535 34.0394V41.84H30.2373C29.9643 41.4583 29.6691 41.0946 29.3534 40.7507C32.0374 39.0626 34.3265 36.7697 36.0535 34.0394V34.0394Z" fill="black"/>
<path d="M18.5167 36.5319C21.1453 36.5197 23.7399 37.1521 26.0918 38.3782C23.7292 39.5628 21.1419 40.1779 18.5211 40.1779C15.9003 40.1779 13.313 39.5628 10.9504 38.3782C13.2986 37.1506 15.8907 36.5181 18.5167 36.5319V36.5319Z" stroke="black" stroke-miterlimit="10"/>
<path d="M18.5167 7.14808C15.8907 7.16193 13.2986 6.52941 10.9504 5.30178C13.313 4.11717 15.9003 3.50214 18.5211 3.50214C21.1419 3.50214 23.7292 4.11717 26.0918 5.30178C23.7399 6.52787 21.1453 7.16027 18.5167 7.14808V7.14808Z" stroke="black" stroke-miterlimit="10"/>
<defs>
<filter id="filter0_d" x="31.0535" y="5.60342" width="124.909" height="40.4639" filterUnits="userSpaceOnUse" color-interpolation-filters="sRGB">
<feFlood flood-opacity="0" result="BackgroundImageFix"/>
<feColorMatrix in="SourceAlpha" type="matrix" values="0 0 0 0 0 0 0 0 0 0 0 0 0 0 0 0 0 0 127 0"/>
<feOffset dy="4"/>
<feGaussianBlur stdDeviation="2"/>
<feColorMatrix type="matrix" values="0 0 0 0 0 0 0 0 0 0 0 0 0 0 0 0 0 0 0.25 0"/>
<feBlend mode="normal" in2="BackgroundImageFix" result="effect1_dropShadow"/>
<feBlend mode="normal" in="SourceGraphic" in2="effect1_dropShadow" result="shape"/>
</filter>
</defs>
</svg>
