<svg width="161" height="43" viewBox="0 0 161 43" fill="none" xmlns="http://www.w3.org/2000/svg">
<path fill-rule="evenodd" clip-rule="evenodd" d="M0.5 42.7366H76.4305H152.362L155.238 38.9823C156.82 36.9174 158.764 34.8446 159.557 34.3757L161 33.524L160.98 21.2603L160.961 8.99718L159.392 7.9975C158.529 7.44767 156.703 5.53576 155.336 3.74883L152.852 0.499847L76.801 0.249924L0.75 0H0.5V2.74915L70.375 2.77963L140.25 2.81062L142.75 3.98775L145.25 5.16539L72.875 5.20686L0.5 5.24835V21.2433C0.5 7.08128 0.523 6.74789 1.5 6.74789C2.477 6.74789 2.5 7.08128 2.5 21.2433C2.5 35.4054 2.477 35.7388 1.5 35.7388C0.523 35.7388 0.5 35.4054 0.5 21.2433V37.2383L72.875 37.2778L145.25 37.3173L142.75 38.5209L140.25 39.7245L70.375 39.731L0.5 39.7375V42.7366ZM157.076 9.48402C156.292 8.82473 154.69 7.0398 153.515 5.51727L151.379 2.74915L147.564 2.76215L143.75 2.77563L147.279 4.64854C151.543 6.91233 155.505 9.76393 157.228 11.8108L158.5 13.3223V12.0022C158.5 11.1645 157.98 10.2443 157.076 9.48402ZM157.791 14.8454C156.904 13.1574 153.969 10.3722 150.91 8.31889L148.57 6.74789H76.285H4V21.2433V35.7388H76.384H148.768L150.759 34.4222C153.445 32.6468 156.921 29.2938 157.79 27.6413C158.765 25.7879 158.765 16.7013 157.791 14.8454ZM153.715 36.785C154.964 35.161 156.573 33.405 157.291 32.8827C158.179 32.2359 158.54 31.5716 158.422 30.7978C158.254 29.6897 158.214 29.7002 156.75 31.2432C154.552 33.56 150.904 36.1317 147.099 38.0476L143.75 39.7345L147.596 39.736L151.441 39.7375L153.715 36.785Z" fill="black"/>
</svg>
