<svg width="289" height="44" viewBox="0 0 289 44" fill="none" xmlns="http://www.w3.org/2000/svg">
<path fill-rule="evenodd" clip-rule="evenodd" d="M1.38904 42.9852H140.571H279.753L281.641 40.2446C283.58 37.429 287.034 33.988 287.92 33.988C288.238 33.988 288.419 29.5661 288.419 21.7915V9.59473L286.677 8.56714C285.719 8.00182 283.778 5.95544 282.365 4.01904L279.796 0.498657H140.563H0.973053L3.87527 3.69325C3.41183 3.08308 4.19067 3.00384 9.48254 3.03833C15.1405 3.07582 15.5405 3.1377 14.1685 3.7655C12.0285 4.7452 4.73604 4.73225 3.91854 3.74756L6.18304 6.87158C5.55954 5.40304 8.22204 5.73194 9.21454 7.24646C9.66504 7.93374 10.6795 10.3515 11.469 12.6198C13.8935 19.5816 13.2915 27.8786 9.86554 34.7369C8.93104 36.6074 8.50304 36.9872 7.33004 36.9872C6.75977 36.9872 6.3836 36.9853 6.18304 36.8885L4.67465 38.7147C5.17382 38.4584 6.19712 38.4661 8.61954 38.6102C10.8465 38.7427 13.3435 39.1629 14.1685 39.5438C15.5635 40.1876 15.271 40.2461 9.97704 40.3781C6.84704 40.456 4.19804 40.4321 4.09054 40.3246L1.38904 42.9852ZM285.104 15.6774C283.71 12.7403 278.727 8.73696 272.746 5.7489L267.24 2.9978L142.954 3.02136L18.6685 3.04431L16.4185 4.20288C15.181 4.84018 13.325 5.51446 12.2935 5.7019C11.2625 5.88885 10.4185 6.13791 10.4185 6.25537C10.4185 6.37233 10.9845 7.74729 11.676 9.3103C13.3655 13.1301 14.4185 17.8837 14.4185 21.693C14.4185 25.2574 12.9795 31.4293 11.4495 34.4274C10.0925 37.086 10.145 37.4869 11.848 37.4869C12.6345 37.4869 14.603 38.1589 16.223 38.9801L19.1685 40.4736L142.932 40.4796L266.695 40.4861L272.225 37.7665C278.571 34.6455 282.849 31.3889 284.659 28.3014C285.746 26.4475 285.919 25.5518 285.919 21.7734C285.919 18.7614 285.664 16.8585 285.104 15.6774ZM284.005 9.70325C282.952 8.80253 281.321 6.93112 280.38 5.54456L278.669 3.0238H274.669L270.669 3.02429L274.17 4.88513C278.721 7.30487 280.647 8.65008 283.544 11.4287C285.733 13.5286 285.919 13.6141 285.919 12.5239C285.919 11.7712 285.223 10.7454 284.005 9.70325ZM283.044 34.7054C284.625 33.027 285.919 31.2795 285.919 30.8217C285.919 29.626 285.345 29.7984 283.919 31.4244C282.046 33.5583 278.172 36.3403 274.205 38.3997L270.669 40.2361L274.419 40.3931C278.031 40.544 278.205 40.4985 279.169 39.1534C279.719 38.3852 281.462 36.3839 283.044 34.7054Z" fill="black"/>
<path d="M3.39204 10.2596C5.30954 14.1859 5.89254 16.8545 5.90054 21.7419C5.90754 26.4195 5.15404 29.581 3.03404 33.7682C2.15701 35.5 1.59927 36.4961 0.973053 37.1132V43.314L1.38904 42.9852L4.09054 40.3246C3.98304 40.2171 4.04704 39.7332 4.23304 39.2494C4.32606 39.0068 4.44478 38.8328 4.67465 38.7147L6.18304 36.8885C5.79541 36.7014 6.06387 36.1599 6.85504 34.5929C8.76704 30.8076 9.58104 26.9084 9.59004 21.4921C9.59804 16.3787 8.84254 13.1356 6.18304 6.87158L3.91854 3.74756C3.90313 3.729 3.88868 3.7109 3.87527 3.69325L0.973053 0.498657V6.32488C1.8329 7.06661 2.37496 8.17672 3.34179 10.1567L3.39204 10.2596Z" fill="black"/>
<path fill-rule="evenodd" clip-rule="evenodd" d="M3.91854 3.74756C3.90313 3.729 3.88868 3.7109 3.87527 3.69325L3.91854 3.74756ZM4.23304 39.2494C4.32606 39.0068 4.44478 38.8328 4.67465 38.7147L4.23304 39.2494Z" fill="black"/>
</svg>
