<svg width="214" height="65" viewBox="0 0 214 65" fill="none" xmlns="http://www.w3.org/2000/svg">
<path fill-rule="evenodd" clip-rule="evenodd" d="M25.6505 2.47043C28.7438 1.96396 29.1664 1.76945 28.9524 0.948498C28.4625 -0.932389 29.7259 0.0780814 31.7031 3.1484C34.1438 6.93917 38.5771 11.2609 41.1382 12.3463C43.6281 13.4013 48.8016 14.6072 49.1804 14.2207C50.1486 13.2323 40.8032 7.43312 37.1255 6.74016C35.2713 6.39118 32.8057 4.11334 32.8057 2.74992C32.8057 1.21601 40.7434 3.52737 45.8477 6.54819C47.6826 7.63362 49.3198 8.74354 49.486 9.01402C49.6832 9.33401 77.1321 9.5085 127.788 9.5115L205.787 9.51699L208.275 12.8823C209.644 14.7332 211.484 16.6996 212.363 17.2516L213.962 18.256L213.981 32.2966L214 46.3368L212.01 47.9427C210.916 48.8262 209.08 50.889 207.93 52.5264L205.839 55.5037H128.069H50.2984L47.2037 57.5686C43.3956 60.109 39.255 61.8364 35.5874 62.4138C32.3627 62.9218 32.0615 62.4688 34.0472 60.098C34.7824 59.221 35.9871 58.4846 36.9991 58.2936C40.6917 57.5981 50.1267 51.755 49.156 50.765C48.6353 50.2346 42.2079 51.9969 39.9738 53.2829C37.5312 54.6893 32.8401 59.664 31.0281 62.7688C29.6911 65.0607 28.5058 65.7771 28.9643 64.0163C29.1773 63.1983 28.911 62.9823 27.4042 62.7523C23.5723 62.1674 20.5646 61.4334 19.4322 60.8069C18.3938 60.2335 18.9638 60.123 24.2254 59.8795C27.5093 59.7275 30.6906 59.3375 31.2949 59.013C33.0028 58.0951 32.2472 57.9531 29.032 58.5886C24.0024 59.582 15.6366 59.3215 11.9838 58.0571C8.62922 56.8957 5.61413 55.1848 4.45827 53.7859C4.06651 53.3119 4.84455 53.6039 6.20798 54.4433C7.55848 55.2748 9.33508 56.0987 10.1564 56.2742L11.6498 56.5937L9.84831 54.9238C-3.08568 42.9355 -3.3097 22.8497 9.35299 10.549C11.5711 8.39409 11.5901 8.35007 10.144 8.69855C9.32961 8.89503 7.54305 9.74448 6.17414 10.5859C4.14516 11.8339 3.86888 11.9124 4.68028 11.0099C8.97518 6.23121 19.355 4.55829 30.8146 6.79816C32.0864 7.04714 32.4179 6.98815 32.0416 6.58018C31.2905 5.76623 26.8343 5.02475 22.1785 4.93926L18.121 4.86478L20.1122 3.95781C21.2073 3.45884 23.6997 2.78941 25.6505 2.47043ZM31.5075 9.06754C33.6684 9.6155 36.1419 10.6044 37.004 11.2654C39.7349 13.3573 44.1259 15.0762 47.6278 15.4237C50.9466 15.7532 50.9884 15.7761 52.5594 18.137C55.6765 22.8217 56.4122 25.566 56.4122 32.5051C56.4122 39.4442 55.6765 42.1885 52.5594 46.8733C51.0212 49.1846 50.8878 49.2626 47.9882 49.5451C43.4409 49.9881 39.0679 51.6955 36.5391 54.0144C35.3703 55.0863 28.9728 56.7852 24.2906 57.2666C21.3223 57.5716 20.716 57.4671 18.0683 56.1902C13.8973 54.1793 8.5217 48.7017 6.4753 44.3774C4.81319 40.8666 3.45374 35.5235 3.45374 32.5051C3.45374 29.4253 4.83659 24.0686 6.52408 20.6123C8.59438 16.3711 14.0357 10.7329 17.8721 8.85203C20.3023 7.6611 21.0017 7.54161 24.0945 7.7906C26.0109 7.94459 29.3471 8.51957 31.5075 9.06754ZM210.101 23.2057C207.928 20.1989 204.417 17.5865 198.63 14.6722L193.342 12.0084L128.879 12.0594L64.4152 12.1104L60.9307 13.5383C59.0142 14.3237 57.0539 14.9757 56.575 14.9862C55.3953 15.0132 55.4406 15.2367 57.4432 19.2559C59.3208 23.0252 60.6818 28.5924 60.6818 32.5051C60.6818 36.4659 59.3129 42.0021 57.372 45.8893C56.3739 47.8882 55.6466 49.5756 55.7552 49.6391C55.8637 49.7021 57.7448 50.4291 59.9351 51.254L63.9174 52.7539L128.599 52.8824L193.281 53.0114L197.799 50.8035C203.341 48.0957 208.016 44.7014 210.009 41.9366L211.511 39.8547V32.5051C211.511 25.2286 211.497 25.1361 210.101 23.2057ZM58.0012 13.0898L54.5739 14.0932L53.535 13.0498L52.4962 12.0064L56.9623 12.0458L61.4284 12.0858L58.0012 13.0898ZM60.6818 52.7734C60.6818 52.6464 59.842 52.3214 58.8151 52.051C54.5072 50.9165 54.4445 50.9155 53.4892 51.9755L52.5629 53.0039H56.6223C58.8549 53.0039 60.6818 52.8999 60.6818 52.7734ZM209.142 47.1947C207.791 48.6022 206.188 50.4851 205.58 51.379C204.493 52.9764 204.409 53.0039 200.65 52.9969L196.826 52.9899L200.56 50.9535C204.881 48.5967 209.077 45.5368 210.365 43.8045C211.226 42.6465 211.269 42.639 211.43 43.6165C211.542 44.2969 210.782 45.4854 209.142 47.1947ZM209.474 18.2325C208.354 17.1456 206.775 15.2997 205.966 14.1312L204.494 12.0064L200.66 12.0194L196.826 12.0328L200.34 13.9062C204.585 16.1706 208.529 19.023 210.244 21.0703C211.487 22.5533 211.511 22.5597 211.511 21.3958C211.511 20.6618 210.734 19.4544 209.474 18.2325Z" fill="black"/>
</svg>
