<svg width="163" height="46" viewBox="0 0 163 46" fill="none" xmlns="http://www.w3.org/2000/svg">
<path fill-rule="evenodd" clip-rule="evenodd" d="M0.804906 46H77.8599H154.914L156.986 43.054C158.125 41.4339 159.944 39.3928 161.029 38.5186L163 36.9296L162.981 23.0374L162.962 9.14459L161.378 8.15076C160.507 7.60461 158.684 5.65894 157.328 3.82754L154.862 0.497668L77.5812 0.492231C27.6202 0.489276 0.44352 0.318179 0.00434857 0.00431708L2.98241 2.96082L7.40746 2.99987L11.8325 3.03947L14.7917 3.06372L78.6618 3.01325L142.532 2.96281L147.772 5.59854C153.505 8.48217 156.984 11.067 159.137 14.0422C160.52 15.9522 160.534 16.0437 160.534 23.2437V30.5158L159.046 32.5757C157.071 35.3115 152.439 38.67 146.948 41.3493L142.471 43.5339L78.3852 43.4063L14.2985 43.2792L11.0927 43.2984C11.0927 43.4236 9.28262 43.5265 7.0706 43.5265H3.04851L0.804906 46ZM158.516 9.12136C157.406 8.04588 155.841 6.21942 155.04 5.0633L153.582 2.96082L149.783 2.97368L145.984 2.987L149.465 4.84067C153.672 7.08118 157.579 9.90351 159.279 11.9293C160.51 13.3966 160.534 13.403 160.534 12.2513C160.534 11.5251 159.764 10.3304 158.516 9.12136ZM154.657 41.9187C155.26 41.0342 156.848 39.1711 158.186 37.7785C159.811 36.0871 160.565 34.9112 160.454 34.2379C160.294 33.2708 160.251 33.2782 159.399 34.424C158.123 36.1381 153.965 39.1657 149.683 41.4977L145.984 43.5126L149.773 43.5196C153.497 43.5265 153.581 43.4993 154.657 41.9187Z" fill="black"/>
</svg>
