<svg width="155" height="139" viewBox="0 0 155 139" fill="none" xmlns="http://www.w3.org/2000/svg">
<path d="M11.2229 5.46794L11.2229 5.46794L6.90097 6.35065L6.65789 6.4003L6.70568 6.64375L7.2842 9.59122L7.2842 9.59124C7.43725 10.3707 7.46383 11.4804 7.37717 12.6447C7.29068 13.8068 7.0929 15.0036 6.80763 15.9542C6.22164 17.907 5.57949 20.7046 5.38004 22.1798C5.28218 22.9036 5.24079 23.4301 5.265 23.6777C5.2683 23.7114 5.27334 23.7465 5.28164 23.7801C5.28884 23.8092 5.30344 23.8585 5.33693 23.9052C5.37483 23.9581 5.45919 24.0328 5.58614 24.02C5.68638 24.01 5.7483 23.9488 5.77077 23.9245C5.82151 23.8698 5.85801 23.7946 5.88473 23.7326C5.91507 23.6622 5.94711 23.5736 5.98091 23.4683C6.23367 22.6818 6.44715 22.0982 6.65318 21.6931C6.86484 21.2769 7.03988 21.1089 7.1833 21.0594C7.30872 21.0162 7.49105 21.0392 7.80296 21.2602C8.11099 21.4785 8.48815 21.8497 8.97325 22.3818L8.97327 22.3818C10.6272 24.1953 11.0292 26.0437 10.3931 27.6572C9.75006 29.2882 8.01767 30.7564 5.23339 31.7247L2.41886 32.7035L2.19391 32.7817L2.26115 33.0102L4.5412 40.7583C5.92596 45.4656 6.74252 51.982 6.90766 57.6381C6.9902 60.4652 6.90972 63.0689 6.65839 65.1175C6.53269 66.1422 6.36498 67.0218 6.15608 67.7185C5.94505 68.4222 5.70029 68.9102 5.43843 69.1799L5.09186 69.5368L5.5851 69.6019L7.55487 69.8618L7.65858 69.8754L7.74113 69.8112C8.10404 69.5287 8.36947 69.0841 8.57282 68.3703C8.77567 67.6582 8.92429 66.6511 9.03454 65.2108C9.25522 62.3283 9.32591 57.6524 9.33892 50.002C9.35395 41.2141 9.38679 36.595 9.65191 33.9923C9.78443 32.6914 9.97287 31.9221 10.2306 31.3959C10.4827 30.8811 10.8095 30.5813 11.2725 30.2347L11.2726 30.2347C12.6138 29.2307 13.2995 27.8726 13.3037 26.3914C13.308 24.9169 12.6375 23.3519 11.3307 21.916L11.3306 21.9159C10.5091 21.0138 10.0536 20.2767 9.82341 19.1222C9.58873 17.9454 9.58667 16.3293 9.71298 13.6615C9.71298 13.6615 9.71298 13.6615 9.71298 13.6614L10.0016 7.58316L13.8929 6.55745C15.0404 6.25512 16.2766 5.77775 17.355 5.24783C18.428 4.72058 19.3677 4.13016 19.906 3.5936L21.6665 1.83925H77.1823H77.4323V1.58925V1.04536V0.795364H77.1823H19.6304H19.5315L19.4594 0.863025L17.4416 2.75568C17.4416 2.7557 17.4416 2.75571 17.4416 2.75572C16.1686 3.94911 14.0305 4.89474 11.2229 5.46794ZM5.767 23.66C5.76696 23.6598 5.76689 23.6595 5.76682 23.6592C5.76718 23.6604 5.76733 23.6611 5.76731 23.6611C5.76729 23.6611 5.76718 23.6607 5.767 23.66Z" fill="black" stroke="black" stroke-width="0.5"/>
<g filter="url(#filter0_d)">
<path d="M6.75897 32.2885C5.47381 32.2885 4.87732 36.1688 5.75111 39.3726L7.76683 38.1919C8.53559 35.7497 7.05123 32.2885 6.75897 32.2885Z" fill="#F1EFEF"/>
<path d="M5.50992 39.4384L5.5958 39.7533L5.87746 39.5884L7.89319 38.4077L7.97636 38.359L8.0053 38.267C8.41076 36.9789 8.21846 35.4478 7.90237 34.2601C7.74325 33.6622 7.54959 33.1393 7.37464 32.7622C7.28761 32.5747 7.20232 32.4168 7.12498 32.3022C7.08689 32.2457 7.0453 32.1915 7.001 32.1485C6.9788 32.127 6.95026 32.1027 6.91571 32.0825C6.88273 32.0633 6.82828 32.0385 6.75897 32.0385C6.29603 32.0385 5.95278 32.3875 5.71635 32.8262C5.47418 33.2757 5.30054 33.8926 5.19807 34.5929C4.99269 35.9965 5.0637 37.8023 5.50992 39.4384Z" stroke="black" stroke-width="0.5"/>
</g>
<path d="M143.821 133.626L143.821 133.626L148.142 132.744L148.386 132.694L148.338 132.451L147.759 129.503L147.759 129.503C147.606 128.724 147.58 127.614 147.666 126.45C147.753 125.288 147.951 124.091 148.236 123.14C148.822 121.187 149.464 118.39 149.663 116.914C149.761 116.191 149.803 115.664 149.778 115.417C149.775 115.383 149.77 115.348 149.762 115.314C149.755 115.285 149.74 115.236 149.707 115.189C149.669 115.136 149.584 115.062 149.457 115.074C149.357 115.084 149.295 115.146 149.273 115.17C149.222 115.225 149.185 115.3 149.159 115.362C149.128 115.432 149.096 115.521 149.063 115.626C148.81 116.413 148.596 116.996 148.39 117.401C148.179 117.817 148.004 117.985 147.86 118.035C147.735 118.078 147.552 118.055 147.24 117.834C146.932 117.616 146.555 117.245 146.07 116.713L146.07 116.713C144.416 114.899 144.014 113.051 144.65 111.437C145.293 109.806 147.026 108.338 149.81 107.37L152.625 106.391L152.85 106.313L152.782 106.084L150.502 98.336C149.117 93.6288 148.301 87.1123 148.136 81.4562C148.053 78.6291 148.134 76.0254 148.385 73.9768C148.511 72.9521 148.678 72.0725 148.887 71.3758C149.098 70.6721 149.343 70.1841 149.605 69.9144L149.952 69.5575L149.458 69.4924L147.489 69.2326L147.385 69.2189L147.302 69.2831C146.939 69.5656 146.674 70.0102 146.471 70.724C146.268 71.4361 146.119 72.4433 146.009 73.8835C145.788 76.766 145.718 81.4419 145.705 89.0923C145.69 97.8802 145.657 102.499 145.392 105.102C145.259 106.403 145.071 107.172 144.813 107.698C144.561 108.213 144.234 108.513 143.771 108.86L143.771 108.86C142.43 109.864 141.744 111.222 141.74 112.703C141.735 114.177 142.406 115.742 143.713 117.178L143.713 117.178C144.534 118.08 144.99 118.818 145.22 119.972C145.455 121.149 145.457 122.765 145.33 125.433C145.33 125.433 145.33 125.433 145.33 125.433L145.042 131.511L141.151 132.537C140.003 132.839 138.767 133.317 137.688 133.846C136.615 134.374 135.676 134.964 135.137 135.501L133.377 137.255L77.8611 137.255L77.6111 137.255L77.6111 137.505L77.6111 138.049L77.6111 138.299L77.8611 138.299L135.413 138.299L135.512 138.299L135.584 138.231L137.602 136.339C137.602 136.339 137.602 136.339 137.602 136.339C138.875 135.145 141.013 134.2 143.821 133.626ZM149.276 115.434C149.276 115.435 149.277 115.435 149.277 115.435C149.276 115.434 149.276 115.433 149.276 115.433C149.276 115.433 149.276 115.434 149.276 115.434Z" fill="black" stroke="black" stroke-width="0.5"/>
<g filter="url(#filter1_d)">
<path d="M148.285 106.806C149.57 106.806 150.166 102.925 149.292 99.7217L147.277 100.902C146.508 103.345 147.992 106.806 148.285 106.806Z" fill="#F1EFEF"/>
<path d="M149.534 99.6559L149.448 99.341L149.166 99.506L147.15 100.687L147.067 100.735L147.038 100.827C146.633 102.115 146.825 103.647 147.141 104.834C147.3 105.432 147.494 105.955 147.669 106.332C147.756 106.52 147.841 106.678 147.919 106.792C147.957 106.849 147.998 106.903 148.042 106.946C148.065 106.967 148.093 106.992 148.128 107.012C148.161 107.031 148.215 107.056 148.285 107.056C148.747 107.056 149.091 106.707 149.327 106.268C149.569 105.819 149.743 105.202 149.845 104.501C150.051 103.098 149.98 101.292 149.534 99.6559Z" stroke="black" stroke-width="0.5"/>
</g>
<path d="M12.0014 133.541L12.0014 133.541L7.6794 132.66L7.43619 132.61L7.48406 132.367L8.06259 129.423L8.06259 129.423C8.21563 128.645 8.24221 127.537 8.15555 126.374C8.06906 125.213 7.87129 124.018 7.58603 123.069C7.00002 121.119 6.35785 118.325 6.15839 116.851C6.06053 116.129 6.01912 115.603 6.04335 115.355C6.04664 115.322 6.05169 115.287 6.06 115.253C6.06721 115.224 6.08183 115.175 6.11536 115.128C6.15334 115.075 6.23768 115.001 6.36445 115.013C6.46458 115.023 6.52649 115.084 6.549 115.109C6.59977 115.163 6.6363 115.238 6.66303 115.3C6.69338 115.371 6.72542 115.459 6.75923 115.564C7.01199 116.35 7.22546 116.933 7.43148 117.337C7.6431 117.753 7.8181 117.92 7.96157 117.97C8.08714 118.013 8.26959 117.99 8.58147 117.769C8.8895 117.551 9.26666 117.181 9.75177 116.649L9.75179 116.649C11.4058 114.838 11.8076 112.993 11.1716 111.381C10.5286 109.753 8.79625 108.286 6.01183 107.319L3.19725 106.342L2.97209 106.264L3.03946 106.035L5.31955 98.2974C6.70432 93.5965 7.52089 87.0888 7.68603 81.4402C7.76857 78.617 7.68808 76.0168 7.43676 73.9709C7.31105 72.9476 7.14334 72.0692 6.93445 71.3735C6.72344 70.6708 6.4787 70.1835 6.21688 69.9142L5.86971 69.5571L6.36347 69.4921L8.33328 69.2326L8.43687 69.2189L8.51937 69.283C8.88232 69.5652 9.1478 70.0093 9.35118 70.7222C9.55405 71.4334 9.70267 72.4393 9.81294 73.8776C10.0336 76.7563 10.1043 81.426 10.1173 89.0662C10.1323 97.8424 10.1652 102.455 10.4303 105.054C10.5628 106.354 10.7513 107.122 11.0089 107.647C11.261 108.161 11.5878 108.461 12.0509 108.807L12.0509 108.807C13.3922 109.809 14.078 111.166 14.0822 112.645C14.0864 114.118 13.4159 115.681 12.109 117.115L12.1089 117.115C11.2874 118.016 10.832 118.752 10.6018 119.905C10.3671 121.08 10.3651 122.694 10.4914 125.358C10.4914 125.358 10.4914 125.358 10.4914 125.358L10.78 131.428L14.6713 132.453C15.8189 132.754 17.055 133.231 18.1335 133.76C19.2064 134.287 20.1462 134.877 20.6845 135.412L22.445 137.164L77.962 137.164L78.212 137.164L78.212 137.414L78.212 137.958L78.212 138.208L77.962 138.208L20.409 138.208L20.3102 138.208L20.2381 138.14L18.2203 136.25C18.2203 136.25 18.2203 136.25 18.2203 136.25C16.9473 135.058 14.8091 134.114 12.0014 133.541Z" fill="black" stroke="black" stroke-width="0.5"/>
<g filter="url(#filter2_d)">
<path d="M7.53728 106.756C6.2521 106.756 5.6556 102.881 6.5294 99.6814L8.54517 100.861C9.31393 103.3 7.82955 106.756 7.53728 106.756Z" fill="#F1EFEF"/>
<path d="M6.28823 99.6155L6.37415 99.301L6.65563 99.4656L8.67139 100.645L8.75462 100.693L8.7836 100.785C9.18913 102.072 8.99679 103.601 8.68068 104.787C8.52155 105.384 8.32788 105.907 8.1529 106.283C8.06587 106.471 7.98056 106.628 7.90321 106.743C7.86512 106.799 7.82351 106.853 7.77919 106.896C7.75699 106.918 7.72844 106.942 7.6939 106.962C7.66092 106.981 7.60651 107.006 7.53728 107.006C7.07451 107.006 6.73123 106.658 6.49472 106.219C6.25251 105.77 6.07885 105.154 5.97636 104.455C5.77097 103.053 5.84199 101.25 6.28823 99.6155Z" stroke="black" stroke-width="0.5"/>
</g>
<path d="M144.278 5.41636L144.278 5.41636L148.6 6.2979L148.843 6.3475L148.795 6.59107L148.217 9.53461L148.217 9.53463C148.064 10.313 148.037 11.4211 148.124 12.5839C148.21 13.7443 148.408 14.9395 148.693 15.8888C149.279 17.839 149.921 20.6329 150.121 22.1062C150.219 22.8291 150.26 23.3549 150.236 23.6022C150.233 23.6359 150.228 23.6711 150.219 23.7046C150.212 23.7337 150.197 23.783 150.164 23.8297C150.126 23.8826 150.042 23.9571 149.915 23.9444C149.815 23.9344 149.753 23.8733 149.73 23.849C149.679 23.7943 149.643 23.7192 149.616 23.6573C149.586 23.5869 149.554 23.4984 149.52 23.3933C149.267 22.6078 149.054 22.025 148.848 21.6205C148.636 21.205 148.461 21.0372 148.318 20.9878C148.192 20.9445 148.01 20.9676 147.698 21.1883C147.39 21.4063 147.013 21.777 146.527 22.3083L146.527 22.3084C144.874 24.1194 144.472 25.9651 145.108 27.5762C145.751 29.2048 147.483 30.6711 150.267 31.6381L153.082 32.6156L153.307 32.6938L153.24 32.9224L150.96 40.6602C149.575 45.3611 148.758 51.8688 148.593 57.5174C148.511 60.3407 148.591 62.9408 148.843 64.9867C148.968 66.01 149.136 66.8884 149.345 67.5841C149.556 68.2869 149.801 68.7741 150.062 69.0434L150.41 69.4005L149.916 69.4655L147.946 69.7251L147.842 69.7387L147.76 69.6746C147.397 69.3924 147.131 68.9484 146.928 68.2354C146.725 67.5243 146.577 66.5184 146.466 65.08C146.246 62.2013 146.175 57.5316 146.162 49.8914C146.147 41.1152 146.114 36.5023 145.849 33.9031C145.716 32.604 145.528 31.8358 145.27 31.3104C145.018 30.7964 144.691 30.4969 144.228 30.1508L144.228 30.1508C142.887 29.1482 142.201 27.7917 142.197 26.3122C142.193 24.8395 142.863 23.2765 144.17 21.8425L144.17 21.8424C144.992 20.9415 145.447 20.2055 145.677 19.0527C145.912 17.8775 145.914 16.2636 145.788 13.5993C145.788 13.5993 145.788 13.5993 145.788 13.5993L145.499 7.52942L141.608 6.5051C140.46 6.20318 139.224 5.72645 138.146 5.19724C137.073 4.6707 136.133 4.08107 135.595 3.54521L133.834 1.79318L78.3173 1.79318L78.0673 1.79318L78.0673 1.54318L78.0673 1.00002L78.0673 0.750019L78.3173 0.750019L135.87 0.750016L135.969 0.750016L136.041 0.817561L138.059 2.70769C138.059 2.70771 138.059 2.70772 138.059 2.70774C139.332 3.89953 141.47 4.84391 144.278 5.41636Z" fill="black" stroke="black" stroke-width="0.5"/>
<g filter="url(#filter3_d)">
<path d="M148.742 32.2015C150.027 32.2015 150.624 36.0767 149.75 39.2762L147.734 38.0971C146.965 35.6581 148.45 32.2015 148.742 32.2015Z" fill="#F1EFEF"/>
<path d="M149.991 39.3421L149.905 39.6566L149.624 39.492L147.608 38.3129L147.525 38.2642L147.496 38.1722C147.09 36.8857 147.283 35.3564 147.599 34.1703C147.758 33.5731 147.951 33.051 148.126 32.6743C148.213 32.487 148.299 32.3293 148.376 32.2148C148.414 32.1584 148.456 32.1043 148.5 32.0613C148.522 32.0398 148.551 32.0155 148.585 31.9954C148.618 31.9762 148.673 31.9515 148.742 31.9515C149.205 31.9515 149.548 32.2999 149.785 32.7382C150.027 33.1871 150.2 33.8033 150.303 34.5028C150.508 35.9046 150.437 37.7081 149.991 39.3421Z" stroke="black" stroke-width="0.5"/>
</g>
<defs>
<filter id="filter0_d" x="0.83823" y="31.7885" width="11.647" height="16.3456" filterUnits="userSpaceOnUse" color-interpolation-filters="sRGB">
<feFlood flood-opacity="0" result="BackgroundImageFix"/>
<feColorMatrix in="SourceAlpha" type="matrix" values="0 0 0 0 0 0 0 0 0 0 0 0 0 0 0 0 0 0 127 0"/>
<feOffset dy="4"/>
<feGaussianBlur stdDeviation="2"/>
<feColorMatrix type="matrix" values="0 0 0 0 0 0 0 0 0 0 0 0 0 0 0 0 0 0 0.25 0"/>
<feBlend mode="normal" in2="BackgroundImageFix" result="effect1_dropShadow"/>
<feBlend mode="normal" in="SourceGraphic" in2="effect1_dropShadow" result="shape"/>
</filter>
<filter id="filter1_d" x="142.558" y="98.9603" width="11.647" height="16.3456" filterUnits="userSpaceOnUse" color-interpolation-filters="sRGB">
<feFlood flood-opacity="0" result="BackgroundImageFix"/>
<feColorMatrix in="SourceAlpha" type="matrix" values="0 0 0 0 0 0 0 0 0 0 0 0 0 0 0 0 0 0 127 0"/>
<feOffset dy="4"/>
<feGaussianBlur stdDeviation="2"/>
<feColorMatrix type="matrix" values="0 0 0 0 0 0 0 0 0 0 0 0 0 0 0 0 0 0 0.25 0"/>
<feBlend mode="normal" in2="BackgroundImageFix" result="effect1_dropShadow"/>
<feBlend mode="normal" in="SourceGraphic" in2="effect1_dropShadow" result="shape"/>
</filter>
<filter id="filter2_d" x="1.61652" y="98.9205" width="11.6471" height="16.3356" filterUnits="userSpaceOnUse" color-interpolation-filters="sRGB">
<feFlood flood-opacity="0" result="BackgroundImageFix"/>
<feColorMatrix in="SourceAlpha" type="matrix" values="0 0 0 0 0 0 0 0 0 0 0 0 0 0 0 0 0 0 127 0"/>
<feOffset dy="4"/>
<feGaussianBlur stdDeviation="2"/>
<feColorMatrix type="matrix" values="0 0 0 0 0 0 0 0 0 0 0 0 0 0 0 0 0 0 0.25 0"/>
<feBlend mode="normal" in2="BackgroundImageFix" result="effect1_dropShadow"/>
<feBlend mode="normal" in="SourceGraphic" in2="effect1_dropShadow" result="shape"/>
</filter>
<filter id="filter3_d" x="143.016" y="31.7015" width="11.6471" height="16.3356" filterUnits="userSpaceOnUse" color-interpolation-filters="sRGB">
<feFlood flood-opacity="0" result="BackgroundImageFix"/>
<feColorMatrix in="SourceAlpha" type="matrix" values="0 0 0 0 0 0 0 0 0 0 0 0 0 0 0 0 0 0 127 0"/>
<feOffset dy="4"/>
<feGaussianBlur stdDeviation="2"/>
<feColorMatrix type="matrix" values="0 0 0 0 0 0 0 0 0 0 0 0 0 0 0 0 0 0 0.25 0"/>
<feBlend mode="normal" in2="BackgroundImageFix" result="effect1_dropShadow"/>
<feBlend mode="normal" in="SourceGraphic" in2="effect1_dropShadow" result="shape"/>
</filter>
</defs>
</svg>
