<svg width="75" height="86" viewBox="0 0 75 86" fill="none" xmlns="http://www.w3.org/2000/svg">
<path d="M71.8663 17.9425C71.5775 18.2159 71.3181 18.5167 71.0922 18.8404Z" fill="white"/>
<path d="M71.0362 18.8943C70.9243 19.0559 70.8217 19.2175 70.7191 19.3881Z" fill="white"/>
<path d="M70.7005 19.415C70.6072 19.5856 70.5233 19.7562 70.4394 19.9358Z" fill="white"/>
<path d="M71.8663 26.535C70.841 25.5285 70.1691 24.238 69.9451 22.8448Z" fill="white"/>
<path d="M73.2092 19.3073C73.2146 17.8441 72.7451 16.4158 71.8662 15.222Z" fill="white"/>
<path d="M3.74922 18.58C3.57118 18.3529 3.37473 18.1397 3.16171 17.9425Z" fill="white"/>
<path d="M3.14297 26.535C4.16829 25.5285 4.84016 24.238 5.06411 22.8448Z" fill="white"/>
<path d="M1.80943 19.3073C1.804 17.8441 2.2735 16.4158 3.15237 15.222Z" fill="white"/>
<path d="M71.6424 45.812C72.0341 39.922 72.9481 34.077 73.7688 28.2499L74.0485 28.7527C73.0407 28.2241 72.1454 27.5174 71.4093 26.6697C70.6507 25.8355 70.0905 24.8519 69.7679 23.7876C69.482 22.7084 69.5306 21.5722 69.9078 20.5194C70.2565 19.4742 70.8759 18.5318 71.7077 17.7809C71.7294 17.7592 71.7555 17.7419 71.7844 17.7301C71.8132 17.7183 71.8442 17.7122 71.8756 17.7122C71.9069 17.7122 71.9379 17.7183 71.9668 17.7301C71.9956 17.7419 72.0217 17.7592 72.0434 17.7809C72.0868 17.8244 72.1109 17.8823 72.1109 17.9425C72.1109 18.0028 72.0868 18.0607 72.0434 18.1041C71.3073 18.8232 70.7716 19.7095 70.486 20.681C70.1923 21.627 70.1923 22.635 70.486 23.5811C70.8139 24.5227 71.3518 25.3838 72.0621 26.104C72.7518 26.8454 73.5808 27.4547 74.5055 27.8998L74.8319 28.0793L74.7759 28.4025C73.7687 34.2117 72.6776 40.0028 72.0901 45.8569C72.0878 45.8849 72.0796 45.9121 72.066 45.937C72.0524 45.9618 72.0337 45.9838 72.011 46.0014C71.9883 46.0191 71.9621 46.0321 71.934 46.0396C71.9059 46.0472 71.8765 46.0492 71.8476 46.0454C71.8177 46.0444 71.7884 46.0374 71.7615 46.0248C71.7345 46.0123 71.7106 45.9944 71.6913 45.9724C71.672 45.9504 71.6577 45.9248 71.6493 45.8972C71.6408 45.8695 71.6385 45.8405 71.6424 45.812Z" fill="black"/>
<path d="M71.316 24.0031C71.951 23.4933 72.4338 22.8302 72.7149 22.0816C72.9318 21.3253 73.0138 20.539 72.9573 19.7562C72.9563 18.9827 72.8337 18.2138 72.5936 17.4757C72.3424 16.756 71.9672 16.0822 71.4838 15.4824L72.2393 14.9617C72.7215 15.6744 73.0746 16.4607 73.2838 17.2871C73.4765 18.0992 73.5363 18.9353 73.461 19.7652C73.4348 20.5897 73.2613 21.4037 72.948 22.1714C72.5839 22.9115 72.0203 23.544 71.316 24.0031Z" fill="black"/>
<path d="M73.6849 62.6468C73.689 64.4565 73.047 66.2126 71.8663 67.6209V76.8598H3.14304V67.6209C1.96617 66.2089 1.32477 64.4526 1.32477 62.6423C1.32477 60.8319 1.96617 59.0757 3.14304 57.6637V26.535C3.75508 26.0164 4.24543 25.3782 4.5815 24.663C4.91756 23.9478 5.09165 23.1719 5.09217 22.3869C5.09193 21.0073 4.61268 19.6673 3.73058 18.58C3.35544 18.1147 3.14905 17.5439 3.14304 16.9549V12.7529C3.15045 12.4478 3.20385 12.1454 3.30158 11.8551C3.60594 10.8922 3.60594 9.86398 3.30158 8.90113C3.18039 8.45281 3.12391 7.99057 3.13372 7.52741V5.83944C4.54532 5.71966 5.88693 5.1942 6.9845 4.33124C8.08207 3.46829 8.88492 2.30768 9.28887 1H65.6832C66.0871 2.30768 66.89 3.46829 67.9876 4.33124C69.0851 5.1942 70.4268 5.71966 71.8384 5.83944V7.52741C71.8497 7.99121 71.79 8.45409 71.6612 8.90113C71.3629 9.86484 71.3629 10.8914 71.6612 11.8551C71.7589 12.1454 71.8123 12.4478 71.8197 12.7529V16.9549C71.8167 17.5459 71.6064 18.1186 71.2228 18.58C70.3434 19.6681 69.8674 21.0082 69.8706 22.3869C69.8711 23.1719 70.0452 23.9478 70.3812 24.663C70.7173 25.3782 71.2077 26.0164 71.8197 26.535V57.6637C73.0158 59.0701 73.6742 60.8291 73.6849 62.6468Z" stroke="black" stroke-width="0.99" stroke-miterlimit="10"/>
<path d="M2.93784 45.8479C2.3503 39.9938 1.25915 34.1757 0.251938 28.3936L0.195984 28.0703L0.5224 27.8908C1.44708 27.4457 2.27609 26.8364 2.96581 26.095C3.67609 25.3748 4.21405 24.5137 4.54191 23.5721C4.84056 22.6268 4.84056 21.6173 4.54191 20.672C4.26357 19.6996 3.7305 18.8123 2.99379 18.0952C2.97123 18.0742 2.95328 18.0491 2.94102 18.0213C2.92877 17.9936 2.92244 17.9637 2.92244 17.9335C2.92244 17.9034 2.92877 17.8735 2.94102 17.8457C2.95328 17.818 2.97123 17.7929 2.99379 17.7719C3.03894 17.7302 3.0991 17.7069 3.16167 17.7069C3.22424 17.7069 3.28438 17.7302 3.32953 17.7719C4.16128 18.5228 4.78072 19.4652 5.12946 20.5104C5.50665 21.5632 5.55528 22.6994 5.26934 23.7786C4.94287 24.8413 4.38312 25.8242 3.62797 26.6607C2.89054 27.5107 1.99164 28.2176 0.979366 28.7437V28.7437L1.24983 28.2409C2.07984 34.068 2.98446 39.913 3.38548 45.803C3.39223 45.8343 3.39166 45.8667 3.38377 45.8978C3.37589 45.9289 3.3609 45.9579 3.33992 45.9828C3.31893 46.0076 3.29246 46.0276 3.26243 46.0413C3.2324 46.0551 3.19957 46.0622 3.16632 46.0622C3.13307 46.0622 3.10025 46.0551 3.07022 46.0413C3.04019 46.0276 3.01373 46.0076 2.99274 45.9828C2.97175 45.9579 2.95676 45.9289 2.94888 45.8978C2.941 45.8667 2.94041 45.8343 2.94716 45.803L2.93784 45.8479Z" fill="black"/>
<path d="M3.7026 24.0031C3.00331 23.5539 2.44017 22.9343 2.07054 22.2073C1.75732 21.4396 1.5838 20.6256 1.55761 19.8011C1.4777 18.9713 1.53754 18.1345 1.7348 17.323C1.94394 16.4966 2.29711 15.7103 2.77932 14.9976L3.53473 15.5183C3.04794 16.116 2.67245 16.7904 2.42492 17.5116C2.1804 18.2487 2.05766 19.0183 2.06121 19.7921C1.99544 20.575 2.0776 21.3629 2.30369 22.1176C2.59059 22.8531 3.07296 23.5032 3.7026 24.0031V24.0031Z" fill="black"/>
<path d="M72.2393 67.8903C70.7077 69.708 69.0401 71.4155 67.2498 72.999C65.4966 74.5853 63.6873 76.1176 61.8221 77.5961C58.0943 80.536 54.1892 83.2613 50.1273 85.7576V85.7576L49.9408 85.2907C52.263 84.9226 54.6038 84.5095 56.8793 84.0157C59.1793 83.5481 61.4418 82.9241 63.65 82.1482V82.1482V82.5522C62.1989 81.6983 60.5903 81.1222 58.9124 80.8553C57.2212 80.5842 55.5057 80.4789 53.7924 80.541C55.5107 80.4019 57.2394 80.438 58.9497 80.6488C60.6877 80.8489 62.3691 81.3702 63.9018 82.1841L64.3215 82.4265L63.8645 82.5881C61.6375 83.3764 59.3565 84.0154 57.0379 84.5006C54.7344 85.0034 52.3749 85.3984 50.0714 85.8025L48.859 86L49.8848 85.3356C53.872 82.7959 57.7022 80.0349 61.3558 77.0663C63.221 75.5759 64.965 74.0316 66.681 72.4334C68.4076 70.86 70.0128 69.1676 71.4839 67.3695L72.2393 67.8903Z" fill="black"/>
<path d="M57.1218 64.9902C57.8086 65.6089 58.3548 66.3579 58.7259 67.1899C59.088 68.0125 59.3115 68.8854 59.388 69.7757C59.4472 70.6556 59.3939 71.5391 59.2295 72.4064C59.1549 72.8374 59.015 73.2594 58.9124 73.6814L58.4741 74.9204L58.8471 73.6634C58.9311 73.2325 59.043 72.7656 59.0989 72.3795C59.2108 71.5239 59.2108 70.6582 59.0989 69.8027C58.987 68.9544 58.7318 68.1295 58.3435 67.3605C57.9641 66.605 57.4314 65.9304 56.7768 65.3763C56.7326 65.3296 56.7076 65.2692 56.7063 65.2061C56.705 65.143 56.7275 65.0816 56.7697 65.0334C56.8119 64.9851 56.8708 64.9532 56.9356 64.9436C57.0003 64.934 57.0665 64.9474 57.1218 64.9812V64.9902Z" fill="black"/>
<path d="M59.3508 69.7129C59.3292 70.2539 59.4195 70.7936 59.6164 71.3007C59.8133 71.8078 60.1129 72.2722 60.4979 72.6668C60.9033 73.0507 61.3993 73.3341 61.9434 73.4928C62.2108 73.5808 62.4853 73.6469 62.7641 73.6904C63.0532 73.6904 63.333 73.7353 63.6221 73.7622C63.333 73.7622 63.0532 73.7622 62.7641 73.7173C62.4807 73.6786 62.2003 73.6216 61.9248 73.5467C61.3644 73.3968 60.8495 73.1197 60.4233 72.7387C60.0089 72.3508 59.6902 71.8783 59.4907 71.356C59.2825 70.8282 59.1751 70.2685 59.1736 69.7039C59.1736 69.6777 59.1844 69.6526 59.2037 69.6341C59.2229 69.6156 59.249 69.6052 59.2762 69.6052C59.3034 69.6052 59.3295 69.6156 59.3488 69.6341C59.368 69.6526 59.3788 69.6777 59.3788 69.7039L59.3508 69.7129Z" fill="black"/>
<path d="M64.3216 74.687C66.1682 73.8184 68.1068 73.144 70.1037 72.6758C71.0988 72.4282 72.1263 72.3223 73.1533 72.3615C73.6742 72.363 74.1855 72.4962 74.6362 72.7476C74.7433 72.8201 74.8318 72.9152 74.8948 73.0257C74.9579 73.1362 74.9938 73.2592 74.9999 73.3851C75.0036 73.6328 74.9323 73.8761 74.7947 74.0854C74.9188 73.8721 74.977 73.6292 74.9626 73.3851C74.953 73.2674 74.9151 73.1534 74.852 73.0521C74.7889 72.9508 74.7022 72.865 74.5988 72.8015C74.151 72.5861 73.6535 72.4842 73.1533 72.5052C72.1448 72.5124 71.1426 72.6606 70.1783 72.9451C68.236 73.5008 66.3603 74.2532 64.5827 75.1898C64.5487 75.2084 64.511 75.2202 64.4721 75.2244C64.4331 75.2286 64.3937 75.2252 64.3562 75.2142C64.3187 75.2033 64.2839 75.1852 64.2539 75.1609C64.2239 75.1367 64.1994 75.1068 64.1817 75.0731C64.1476 75.0059 64.1411 74.9287 64.1636 74.8571C64.1861 74.7855 64.2358 74.7247 64.3029 74.687H64.3216Z" fill="black"/>
<path d="M72.3326 55.8949L71.4 66.3729V55.859C71.4 55.7399 71.4491 55.6257 71.5365 55.5415C71.624 55.4574 71.7426 55.41 71.8663 55.41C71.9899 55.41 72.1085 55.4574 72.196 55.5415C72.2834 55.6257 72.3326 55.7399 72.3326 55.859V55.8949Z" fill="black"/>
<path d="M3.52534 67.3605C5.00224 69.1565 6.6104 70.8488 8.33756 72.4244C10.0535 74.0226 11.8348 75.5669 13.6627 77.0573C17.3296 80.0294 21.1755 82.7907 25.1803 85.3266V85.3266L26.2062 85.991L24.9938 85.7935C22.6623 85.4164 20.3308 84.9944 18.0273 84.4916C15.7086 84.0064 13.4276 83.3674 11.2006 82.5792V82.5792L10.7343 82.4175L11.1633 82.1751C12.6945 81.3686 14.3726 80.8534 16.1061 80.6577C17.8165 80.4469 19.5452 80.4108 21.2634 80.55V80.55C19.5501 80.4879 17.8347 80.5932 16.1434 80.8643C14.4655 81.1311 12.8569 81.7073 11.4058 82.5612V82.1572C13.614 82.933 15.8766 83.5571 18.1765 84.0247C20.4707 84.5185 22.7929 84.9226 25.115 85.2997L24.9285 85.7665C20.8666 83.2702 16.9616 80.545 13.2337 77.605C11.3685 76.1326 9.55616 74.6002 7.79665 73.008C6.01178 71.422 4.34747 69.7147 2.81656 67.8992L3.52534 67.3605Z" fill="black"/>
<path d="M18.2231 65.3942C17.5685 65.9483 17.0358 66.623 16.6563 67.3784C16.2687 68.1484 16.0106 68.9727 15.8916 69.8206C15.7797 70.6762 15.7797 71.5419 15.8916 72.3975C15.9476 72.8284 16.0595 73.2504 16.1341 73.6814L16.5164 74.9384L16.0688 73.6994C15.9755 73.2774 15.8356 72.8554 15.761 72.4244C15.5919 71.5576 15.5386 70.6735 15.6025 69.7937C15.679 68.9033 15.9026 68.0304 16.2646 67.2078C16.6335 66.3694 17.1798 65.6141 17.8687 64.9901C17.893 64.9662 17.922 64.9473 17.9541 64.9343C17.9861 64.9214 18.0205 64.9147 18.0552 64.9147C18.09 64.9147 18.1243 64.9214 18.1564 64.9343C18.1884 64.9473 18.2174 64.9662 18.2417 64.9901C18.2666 65.0135 18.2863 65.0415 18.2997 65.0723C18.3132 65.1032 18.3201 65.1363 18.3201 65.1697C18.3201 65.2032 18.3132 65.2363 18.2997 65.2671C18.2863 65.2979 18.2666 65.3259 18.2417 65.3493V65.3493L18.2231 65.3942Z" fill="black"/>
<path d="M15.8729 69.7039C15.8683 70.269 15.7577 70.8287 15.5465 71.356C15.349 71.8831 15.0233 72.357 14.5966 72.7382C14.1698 73.1193 13.6546 73.3965 13.0938 73.5467C12.8183 73.6216 12.5379 73.6786 12.2545 73.7173C11.9654 73.7173 11.6763 73.7173 11.3965 73.7622C11.6763 73.7622 11.9654 73.7622 12.2451 73.6904C12.5273 73.6479 12.805 73.5818 13.0751 73.4928C13.6193 73.3341 14.1153 73.0507 14.5207 72.6668C14.9061 72.2729 15.2055 71.8085 15.4009 71.301C15.5964 70.7936 15.684 70.2535 15.6584 69.7129V69.7129C15.6584 69.6843 15.6702 69.6569 15.6912 69.6367C15.7122 69.6165 15.7407 69.6052 15.7704 69.6052C15.7846 69.6051 15.7988 69.6079 15.8119 69.6134C15.825 69.619 15.8367 69.6271 15.8464 69.6372C15.8561 69.6473 15.8634 69.6593 15.868 69.6723C15.8726 69.6854 15.8742 69.6992 15.8729 69.7129V69.7039Z" fill="black"/>
<path d="M10.4173 75.1898C8.63974 74.2532 6.76405 73.5008 4.82167 72.9452C3.85736 72.6606 2.85524 72.5124 1.84668 72.5052C1.34645 72.4834 0.848754 72.5854 0.40115 72.8015C0.297907 72.866 0.210875 72.9519 0.146355 73.0528C0.0818356 73.1538 0.041449 73.2673 0.0281156 73.3851C0.0213785 73.6296 0.0825512 73.8713 0.205312 74.0854C0.0677104 73.8761 -0.00358546 73.6328 0.000138797 73.3851C0.00405558 73.2587 0.0390553 73.135 0.102284 73.0242C0.165513 72.9134 0.255165 72.8186 0.363852 72.7476C0.813463 72.4938 1.32547 72.3605 1.84668 72.3615C2.8737 72.3223 3.90116 72.4282 4.89628 72.6758C6.89017 73.144 8.82567 73.8184 10.6691 74.687C10.711 74.6982 10.7498 74.7182 10.7828 74.7453C10.8159 74.7725 10.8424 74.8064 10.8604 74.8445C10.8785 74.8825 10.8877 74.9239 10.8874 74.9658C10.8871 75.0076 10.8773 75.0489 10.8587 75.0868C10.84 75.1246 10.8131 75.1581 10.7796 75.1848C10.7462 75.2115 10.7071 75.2309 10.665 75.2416C10.623 75.2523 10.579 75.254 10.5362 75.2466C10.4934 75.2392 10.4528 75.2229 10.4173 75.1988V75.1988V75.1898Z" fill="black"/>
<path d="M3.61859 55.859V66.3729L2.68599 55.8949C2.68089 55.8359 2.68797 55.7765 2.7068 55.7202C2.72563 55.6638 2.75585 55.6116 2.79572 55.5665C2.8356 55.5215 2.88433 55.4844 2.93912 55.4576C2.99392 55.4307 3.05369 55.4146 3.115 55.41C3.23727 55.4 3.35872 55.4368 3.453 55.5125C3.54727 55.5881 3.60676 55.6965 3.61859 55.8141V55.859Z" fill="black"/>
<path d="M37.5093 83.7464C47.8981 83.7464 56.3199 78.0503 56.3199 71.0238C56.3199 63.9973 47.8981 58.3012 37.5093 58.3012C27.1206 58.3012 18.6988 63.9973 18.6988 71.0238C18.6988 78.0503 27.1206 83.7464 37.5093 83.7464Z" fill="white" stroke="black" stroke-miterlimit="10"/>
</svg>
