<svg width="101" height="118" viewBox="0 0 101 118" fill="none" xmlns="http://www.w3.org/2000/svg">
<path d="M5.29307 6.46846C8.45307 5.20336 11.1946 2.99257 11.5006 1.46155L11.7931 0H50.4806H89.1681V1.15614C89.1681 2.66717 91.3106 4.67654 94.3586 6.02362L96.7996 7.10278L96.4901 10.0618C96.3201 11.6898 96.0291 13.6257 95.8436 14.365C95.5376 15.5836 95.4706 15.6171 95.1221 14.7274C94.9111 14.1875 94.7191 12.621 94.6961 11.2465L94.6536 8.74725L92.0556 7.49765C90.4171 6.7094 88.8971 5.47478 87.9381 4.15419L86.4181 2.06036L50.1036 2.02986L13.7896 1.99937L13.1976 3.42792C12.5676 4.94844 11.0116 6.28252 8.16807 7.74007C5.84356 8.93119 5.68457 9.24911 5.67557 12.721C5.66607 16.4574 4.96807 15.8485 4.22457 11.4554C3.47957 7.05181 3.44607 7.20773 5.29307 6.46846Z" fill="black"/>
<path fill-rule="evenodd" clip-rule="evenodd" d="M2.75956 19.6828C2.00706 26.8996 2.02357 29.2068 2.84857 31.965L3.51357 34.1898L4.37457 32.8762C5.02757 31.88 5.13406 31.1622 4.81556 29.9021C4.58456 28.9884 4.47707 27.5689 4.57657 26.7466L4.75757 25.2526L5.46306 26.929C6.96756 30.5074 5.91007 33.9014 2.36707 36.8624C1.18357 37.8511 0.335564 38.8543 0.482064 39.0917C1.00706 39.9405 1.67107 45.9346 2.65807 58.7316C4.01507 76.3275 4.00506 76.7364 2.12256 80.2988C0.785564 82.8295 0.602565 83.6282 0.765565 86.2229C0.873565 87.9489 1.42357 90.1907 2.06057 91.5043C2.72157 92.8658 3.16807 94.7307 3.16807 96.1278C3.16807 98.1072 3.01906 98.4691 2.20356 98.4691C0.136565 98.4691 -0.860935 100.966 0.931065 101.654C1.37707 101.825 1.51957 101.663 1.33907 101.193C1.16357 100.736 1.37407 100.468 1.90907 100.468C2.63107 100.468 2.73156 100.914 2.58756 103.469L2.41807 106.469L10.0641 106.468L17.7101 106.467L19.9196 108.091C21.1346 108.985 22.1381 109.839 22.1486 109.99C22.1591 110.141 20.8711 110.533 19.2861 110.86C17.7011 111.188 15.8766 111.825 15.2311 112.277C14.0671 113.092 14.0901 113.11 18.3066 114.74C22.4926 116.358 31.2276 118.013 35.0581 117.915L36.9181 117.868L34.4896 117.061C33.1541 116.618 31.1291 115.411 29.9896 114.38L27.9181 112.506L29.5591 112.485C31.5026 112.461 34.4971 113.629 35.9226 114.968C37.5851 116.529 48.7526 117.341 57.2716 116.519C63.1466 115.952 64.0676 115.737 65.2056 114.662C66.6026 113.341 69.0621 112.465 71.3671 112.465C72.7991 112.465 72.8081 112.481 71.9036 113.48C70.6016 114.918 67.9456 116.481 65.5061 117.244L63.4181 117.896L65.3541 117.929C70.9456 118.026 86.1681 114.391 86.1681 112.959C86.1681 112.462 82.6531 111.111 79.9806 110.581L78.0431 110.196L80.4376 108.332L82.8321 106.467H90.5251H98.2176L97.8781 103.468C97.5866 100.89 97.6536 100.468 98.3536 100.468C98.8016 100.468 99.1681 100.833 99.1681 101.279C99.1681 101.943 99.3036 101.978 99.9181 101.468C101.092 100.494 100.804 99.4328 99.2011 98.8285C96.7831 97.9158 96.5301 95.3226 98.4806 91.4403C100.184 88.0504 100.288 83.6498 98.7376 80.6112C98.1571 79.4736 97.4441 78.3959 97.1526 78.216C96.8116 78.005 96.7221 76.4355 96.9016 73.8083C98.3441 52.665 98.8156 46.8453 99.4056 42.894L100.089 38.32L98.8291 37.3288C94.9176 34.2533 93.7226 31.6171 94.6836 28.1852C95.0256 26.9645 95.4996 25.8464 95.7366 25.6994C96.3286 25.3335 96.2816 28.6275 95.6716 30.231C95.2916 31.2307 95.3676 31.8295 95.9961 32.7887C96.9901 34.3053 97.3146 33.9833 98.0601 30.7404C98.4996 28.8295 98.4861 26.6277 98.0036 21.3873C97.6566 17.618 97.2571 14.418 97.1161 14.2765C96.9746 14.1356 96.3361 16.2074 95.6966 18.8811C95.0571 21.5547 94.1141 24.8192 93.6011 26.1353C92.4451 29.1004 92.4376 31.1682 93.5736 33.6964C94.3161 35.3489 94.3856 36.2801 94.0211 39.6945C93.5751 43.8722 94.0391 83.7192 94.6011 89.4719L94.9181 92.7209L95.7931 90.896C96.3956 89.6394 96.6681 87.8569 96.6681 85.1728C96.6681 82.3102 96.8161 81.4224 97.2246 81.8308C98.0676 82.6735 98.3401 86.4783 97.7211 88.7746C96.5066 93.2837 91.7661 98.5276 84.6681 103.214C82.0556 104.938 78.7971 107.275 77.4271 108.407C75.3301 110.14 74.5831 110.465 72.7006 110.465H70.4651L72.4181 108.466C74.0651 106.78 74.6901 106.467 76.4081 106.467C78.3951 106.467 80.6681 105.384 80.6681 104.439C80.6681 104.179 80.1941 103.967 79.6146 103.967C78.9071 103.967 78.6511 103.733 78.8351 103.253C78.9861 102.86 79.2601 101.737 79.4441 100.756L79.7786 98.9729L81.2616 100.221C83.6526 102.232 84.3671 101.667 82.1876 99.4883C80.8456 98.1467 79.9556 96.6417 79.4251 94.8182C78.9946 93.3382 78.2926 91.6987 77.8646 91.1744C77.1041 90.2437 77.0946 90.2447 77.4386 91.2214C78.8226 95.1476 78.7741 101.343 77.3501 102.524C76.3061 103.39 76.2196 102.995 76.8196 100.103C78.2116 93.3917 73.5516 85.9395 65.4781 81.9663C61.2131 79.8674 57.7501 79.0087 52.1681 78.6658C41.1021 77.986 30.3141 82.6765 25.7386 90.1572C24.2416 92.6054 23.9121 93.6586 23.7506 96.5117C23.6441 98.3926 23.7956 100.615 24.0866 101.45C24.5201 102.693 24.4826 102.968 23.8796 102.968C23.4746 102.968 22.9031 102.349 22.6091 101.593C22.0411 100.133 22.2686 93.3782 22.9401 91.7642C23.2086 91.1189 23.1601 90.9175 22.7921 91.1449C22.4916 91.3303 21.7706 92.8853 21.1896 94.6008C20.0741 97.8948 19.1991 99.2064 17.1816 100.609C15.4461 101.816 17.0151 101.71 19.0251 100.485C20.8231 99.3888 20.9341 99.4633 21.4286 102.097C21.7506 103.814 21.6861 103.967 20.6366 103.967H19.4936L20.6681 105.217C21.5716 106.178 22.3701 106.477 24.1301 106.509C26.1476 106.546 26.6171 106.782 28.1011 108.508L29.7841 110.465H27.6706C25.9596 110.465 25.1146 110.101 23.2376 108.557C20.8231 106.571 18.4131 104.874 13.5381 101.725C8.05356 98.1827 2.95457 91.3153 2.32457 86.6228C2.17007 85.4692 2.36957 84.0196 2.82757 82.968L3.58656 81.2245L3.62706 85.0213C3.66806 88.8236 4.82557 92.5135 5.70257 91.6367C6.45657 90.883 7.29707 52.5105 6.75657 43.4949C6.34807 36.679 6.38407 35.021 6.96557 33.8973C7.80207 32.2798 7.88307 28.613 7.12507 26.6491C6.82657 25.8754 5.93706 22.7973 5.14856 19.8093C4.36056 16.8212 3.63357 14.2945 3.53307 14.194C3.43257 14.0936 3.08456 16.5633 2.75956 19.6828ZM73.1856 92.6049C70.9251 87.6265 63.8416 83.0449 56.3391 81.7079C48.1851 80.2553 40.1561 81.6319 34.0906 85.5226C22.7656 92.7879 23.8921 105.219 36.4181 111.211C41.4561 113.62 43.7351 114.119 49.9181 114.167C58.1441 114.231 64.4906 112.198 69.3131 107.954C73.8551 103.957 75.4571 97.6074 73.1856 92.6049ZM25.6881 113.059C27.5106 114.406 27.5641 114.964 25.8701 114.964C24.0871 114.964 19.1681 113.492 19.1681 112.959C19.1681 112.721 20.0121 112.437 21.0431 112.329C22.0746 112.221 23.2086 112.095 23.5631 112.049C23.9181 112.003 24.8746 112.457 25.6881 113.059ZM81.1681 112.929C81.1681 112.674 80.7741 112.462 80.2931 112.459C79.8121 112.456 78.6306 112.325 77.6681 112.168C76.1721 111.924 75.7046 112.106 74.4496 113.423L72.9811 114.964H74.3726C76.2796 114.964 81.1681 113.5 81.1681 112.929ZM95.1681 101.427C95.1681 101.955 95.3046 102.742 95.4716 103.177C95.7341 103.861 95.1796 103.967 91.3466 103.965L86.9181 103.964L88.5006 102.999C89.9436 102.119 93.8826 100.55 94.7931 100.492C94.9996 100.479 95.1681 100.9 95.1681 101.427ZM13.9181 103.923L11.9181 102.864C9.47256 101.569 5.86607 100.437 5.46357 100.839C5.30107 101.002 5.16807 101.772 5.16807 102.551V103.967L9.54306 103.945L13.9181 103.923ZM4.85656 49.4755C5.13206 57.9853 4.83106 57.4735 3.68506 47.4851C3.35406 44.5985 2.89557 41.5065 2.66657 40.6143C2.33607 39.3272 2.42207 38.8948 3.08407 38.5219C4.26307 37.8581 4.53506 39.5391 4.85656 49.4755ZM96.1856 52.676C96.4431 50.4452 96.9731 46.5089 97.3636 43.9287C97.9421 40.1029 97.9546 39.1137 97.4296 38.5649C97.0086 38.1245 96.6756 38.071 96.4661 38.4104C96.2901 38.6953 96.0496 42.9345 95.9316 47.8305C95.7566 55.1117 95.8026 55.9939 96.1856 52.676Z" fill="black"/>
</svg>
