<svg width="91" height="104" viewBox="0 0 91 104" fill="none" xmlns="http://www.w3.org/2000/svg">
<path fill-rule="evenodd" clip-rule="evenodd" d="M25.032 5.84004C32.027 3.70771 39.1 1.5319 40.75 1.00507C42.4 0.478234 44.285 0.0258759 44.9385 0.000383918C45.5925 -0.0256079 50.43 1.27148 55.6885 2.88198C60.9475 4.49247 68.0895 6.67229 71.5605 7.72595L77.871 9.64136L78.689 13.4197C80.51 21.8285 83.951 26.4636 89.625 28.1526C90.428 28.3915 90.5 29.4397 90.5 40.8906V53.3686L88.986 57.5263C86.917 63.2066 81.5995 73.9327 78.7465 78.1788C71.034 89.6592 61.2865 98.1146 51.341 101.951C45.711 104.124 45.213 104.158 41 102.658C25.8425 97.2628 12.8665 83.8076 4.37851 64.6831C0.0240097 54.8732 0 54.7412 0 40.8371C0 29.4451 0.0725 28.39 0.875 28.1321C5.2025 26.742 7.43901 24.6796 9.61801 20.0701C10.431 18.3511 11.37 15.3181 11.705 13.3307L12.314 9.71633L25.032 5.84004ZM54.75 10.6785C58.05 11.7077 62.1 12.9598 63.75 13.4617C64.5056 13.6913 65.184 13.8948 65.794 14.0777C69.4074 15.1615 70.62 15.5252 71.2385 16.3399C71.5509 16.7514 71.7117 17.2779 71.9538 18.0704C72.0346 18.3349 72.1244 18.629 72.232 18.9584C73.9485 24.2163 75.5615 26.9999 78.875 30.4248C80.594 32.2013 82 33.9312 82 34.2691C82 34.607 82.225 35.0224 82.5 35.1923C82.8005 35.3783 83 38.7862 83 43.7381C83 51.9501 82.995 51.988 81.256 56.4896C74.246 74.6349 63.047 88.1597 50.215 93.9759C47.8655 95.0411 46.734 95.316 46.0995 94.9766C45.546 94.6807 44.896 94.6922 44.3325 95.0076C43.652 95.3879 42.5395 95.0786 39.635 93.6995C27.1385 87.7669 15.1765 73.0929 9.05899 56.1917C7.54449 52.0076 7.5 51.6432 7.5 43.4138C7.5 38.0994 7.6865 34.9424 8 34.9424C8.275 34.9424 8.5 34.5885 8.5 34.1557C8.5 33.7233 9.7 32.2732 11.1665 30.9332C14.0775 28.2735 16.449 24.2738 18.21 19.0544L19.3425 15.6985L27.0465 13.3542C31.2835 12.0646 36.4375 10.4706 38.5 9.81182C43.7245 8.14334 47.22 8.32975 54.75 10.6785ZM75.136 11.9471C74.78 11.6482 68.025 9.52589 53.5 5.14977C50.3375 4.19707 47.1875 3.23586 46.5 3.01393C45.5545 2.70853 41.655 3.71773 30.4955 7.15515C22.3805 9.65437 15.4615 11.8817 15.1205 12.1041C14.779 12.3265 14.5 13.0498 14.5 13.7111C14.5 15.2306 13.274 18.9439 11.679 22.2559C10.175 25.3789 6.4325 29.2237 4.1705 29.9705L2.5 30.5213V41.2184C2.5 51.3373 2.56901 52.126 3.77551 55.8004C4.47701 57.9367 6.48251 62.6217 8.23251 66.2111C15.8695 81.8742 25.111 91.9345 37.5 98.0711C44.536 101.557 45.929 101.554 53.033 98.0466C55.9025 96.63 59.743 94.3368 61.5675 92.9512C66.227 89.4123 72.3875 82.7474 76.029 77.3056C79.559 72.0308 84.768 61.5316 86.6945 55.8064C87.9405 52.1055 88 51.4392 88 41.2249V30.5213L86.3655 29.982C82.303 28.6419 78.061 22.5213 76.318 15.4845C75.88 13.7171 75.348 12.1256 75.136 11.9471ZM43.6385 5.94602C42.782 6.9462 41.164 7.54801 31.5 10.4611C28.6125 11.3313 25.35 12.337 24.25 12.6954C23.15 13.0543 21.3015 13.6021 20.142 13.913C18.069 14.4688 18.0155 14.5388 16.96 18.0877C15.438 23.2036 13.83 26.1257 10.8345 29.2177C8.771 31.347 7.9935 31.8479 7.1105 31.6175C4.9915 31.0631 3.591 33.5658 5.25 34.9424C5.861 35.4493 6 37.0862 6 43.7726C6 51.9606 6.00451 51.9926 7.79651 56.8326C12.302 68.9987 19.931 80.5506 28.3245 87.9148C31.878 91.0323 38.181 94.9931 41.1455 95.9713C42.25 96.3356 43.2515 97.0259 43.378 97.5108C43.823 99.2107 46.6755 99.2127 47.1225 97.5133C47.244 97.0509 48.2225 96.3646 49.297 95.9878C56.8725 93.3291 67.6505 83.8785 73.7235 74.569C77.258 69.1507 81.031 61.5636 83.1915 55.5309C84.4 52.1565 84.5 51.2543 84.5 43.7212C84.5 37.0807 84.6395 35.4488 85.25 34.9424C86.909 33.5658 85.5085 31.0631 83.3895 31.6175C80.8265 32.2873 74.843 23.7674 73.0005 16.8251C72.4205 14.6398 72.2085 14.4094 70.3105 13.9C69.1775 13.5966 67.35 13.0543 66.25 12.6954C65.15 12.337 61.8875 11.3313 59 10.4611C49.336 7.54801 47.718 6.9462 46.8615 5.94602C46.393 5.39919 45.668 4.95183 45.25 4.95183C44.832 4.95183 44.107 5.39919 43.6385 5.94602Z" fill="black"/>
</svg>
