<svg width="99" height="94" viewBox="0 0 99 94" fill="none" xmlns="http://www.w3.org/2000/svg">
<path fill-rule="evenodd" clip-rule="evenodd" d="M4.83502 4.91928L0.5 9.38687V46.7912V84.1954L5.13452 88.8089L9.76898 93.4225H49.7695H89.7701L94.385 88.7895L99 84.1564V46.9176V9.6788L94.3655 5.06523L89.731 0.451691H49.4505H9.16949L4.83502 4.91928ZM89.225 8.0678C87.6985 6.59026 85.2795 4.83631 83.85 4.17052L81.25 2.96091L49.705 2.9559L18.1595 2.9509L15.14 4.45943C13.4725 5.29267 11.0855 7.07359 9.81 8.43666L7.5 10.9054V46.9271V82.9483L9.55902 85.1811C10.751 86.4742 13.095 88.1532 15.126 89.1688L18.6345 90.9233L49.692 90.9228L80.75 90.9223L83.897 89.4342C85.746 88.5595 88.0655 86.897 89.522 85.4025L92 82.8593V46.8071V10.7549L89.225 8.0678ZM5.88147 63.5569L5.75 80.1767L4.375 76.5243L3 72.8719V46.9371V21.0022L4.375 17.3499L5.75 13.6975L5.88147 30.3173C5.95397 39.4584 5.95397 54.4157 5.88147 63.5569ZM4.57898 14.0594C6.40648 10.3401 9.88652 6.31935 12.973 4.36147L15.196 2.9509H12.961C10.838 2.9509 10.5335 3.14482 6.86353 6.83566L3 10.7205L3.01849 13.9584L3.03748 17.1964L4.57898 14.0594ZM8.44849 85.5035C9.57849 86.7836 11.571 88.4706 12.8765 89.2523L15.25 90.6734L13.044 90.8308C10.89 90.9848 10.7455 90.8968 6.91901 87.094L3 83.1992L3.02448 79.9382L3.04901 76.6777L4.72198 79.9267C5.64148 81.7137 7.31899 84.2229 8.44849 85.5035ZM86.4985 90.8313C88.6215 90.9853 88.7755 90.8898 92.613 87.0535L96.55 83.1182L96.4001 79.7763L96.25 76.4343L95.3141 78.7081C93.8131 82.355 90.2765 86.7311 87.1695 88.7875L84.3205 90.6734L86.4985 90.8313ZM95.2256 17.5833L96.5 20.9682V46.6757V72.3836L95.2906 75.715C94.6251 77.547 93.8376 79.2894 93.5406 79.5863C93.1531 79.9737 93 70.6482 93 46.6872C93 25.5393 93.1751 13.4226 93.4756 13.723C93.7371 13.9845 94.5246 15.7219 95.2256 17.5833ZM96.5 10.675L92.614 6.81319C88.997 3.21832 88.5815 2.9509 86.614 2.9509C85.4515 2.9509 84.5 3.04189 84.5 3.15335C84.5 3.26482 85.49 3.93607 86.7005 4.64485C89.5945 6.34032 92.708 9.92571 94.778 13.9474L96.451 17.1964L96.4756 13.9359L96.5 10.675Z" fill="black"/>
</svg>
