<svg width="150" height="95" viewBox="0 0 150 95" fill="none" xmlns="http://www.w3.org/2000/svg">
<path fill-rule="evenodd" clip-rule="evenodd" d="M4.6825 5.51801L0 10.1086V47.6663V85.224L4.625 89.8101L9.25 94.3961L74.76 94.3972L140.27 94.3981L144.885 89.7651L149.5 85.132V47.8937V10.6555L144.616 5.79144L139.732 0.92749H74.5485H9.36551L4.6825 5.51801ZM140.229 9.53473C139.09 8.20565 137.013 6.74364 134.42 5.44604L130.384 3.4267L74.817 3.43872L19.25 3.4502L16.446 4.60333C13.014 6.01489 11.2055 7.27348 8.827 9.90515L7 11.927V48.0206V84.1144L9.74649 86.7105C11.257 88.1386 13.5635 89.834 14.8715 90.4778L17.25 91.649L74.0965 91.7804L130.943 91.9114L133.723 90.6823C135.252 90.0065 137.74 88.2841 139.252 86.855L142 84.2563V47.9302V11.6041L140.229 9.53473ZM142.912 7.58685L147.053 11.7476L146.901 14.9595L146.75 18.1721L145.12 14.986C142.939 10.7234 140.144 7.49539 137.061 5.67596C135.663 4.85122 134.516 4.00751 134.51 3.80157C134.505 3.59564 135.461 3.4267 136.636 3.4267C138.648 3.4267 139.013 3.66808 142.912 7.58685ZM147 47.6628C147 24.3386 146.947 22.8566 145.992 19.849L145.851 19.4046C145.106 17.0547 144.6 15.4607 144.258 15.4949C143.535 15.5671 143.535 22.8803 143.536 45.6159L143.536 47.6628L143.536 49.7096C143.535 72.4452 143.535 79.7585 144.258 79.8307C144.6 79.8649 145.106 78.2709 145.851 75.921L145.992 75.4766C146.947 72.469 147 70.987 147 47.6628ZM15 3.65564C15 3.7816 13.994 4.47388 12.7645 5.19415C9.677 7.00309 5.863 11.3227 4.0625 15.0496L2.55399 18.1721L2.52701 14.9336L2.5 11.6951L6.61401 7.56085C10.487 3.66857 10.853 3.4267 12.864 3.4267C14.039 3.4267 15 3.52968 15 3.65564ZM5.53601 80.9023C5.81651 80.9023 6 67.774 6 47.6628C6 29.381 5.8935 14.4232 5.763 14.4232C5.3835 14.4232 4.20449 16.961 3.30499 19.7146C2.56549 21.9769 2.4895 25.1649 2.612 48.7055C2.7495 75.0632 2.75401 75.1642 3.91101 78.0283C4.54951 79.6088 5.28051 80.9023 5.53601 80.9023ZM8.77399 87.2164C10.173 88.6274 12.202 90.2484 13.2835 90.8182L15.25 91.8549L12.761 91.877C10.316 91.8984 10.2035 91.8304 6.38599 88.0366L2.5 84.1748L2.5145 80.9138L2.52899 77.6534L4.38 81.1523C5.3985 83.0767 7.37549 85.8058 8.77399 87.2164ZM136.464 91.8069C138.639 91.9624 138.747 91.8949 142.865 87.7782L147.053 83.5915L146.902 80.501L146.75 77.4105L144.882 81.0468C142.846 85.01 138.926 89.3217 136.065 90.7458L134.25 91.649L136.464 91.8069Z" fill="black"/>
</svg>
