<svg width="647" height="150" viewBox="0 0 647 150" fill="none" xmlns="http://www.w3.org/2000/svg">
<path fill-rule="evenodd" clip-rule="evenodd" d="M7.875 112.974C6.431 113.168 2 113.5 2 113.5L2.32131 111C2.79789 111.356 4.87204 110.69 6.66751 110.512C10.329 110.148 10.5 110.033 10.5 107.937C10.5 106.028 10.3695 105.991 6.5 106.786C6.03647 106.881 5.61976 106.965 5.24593 107.04L5.24195 107.041C3.20981 107.451 2.32131 107.5 2.32131 107.5V105.5L3.698 105.992C5.1015 105.809 7.2065 105.42 8.375 105.128L10.5 104.599V75.9167C10.5 57.5534 10.324 47.2352 10.011 47.2352C9.74199 47.2352 3.3745 47.4562 0 48V47L6.125 46.4334L10.5 45.6317V43.6843C10.5 42.4112 10.273 41.7369 9.84451 41.7369C9.48401 41.7369 5.8335 41.9697 2 42.5L1.5 40L7.75 39.3451L10.25 38.9758L10.386 19.4879L10.522 0L12.487 4.41961C13.5675 6.85035 15.025 9.59099 15.726 10.5092C16.6085 11.6663 17 12.804 17 14.212V16.2449H19.1725C20.747 16.2449 21.6075 15.955 22.2975 15.1922C22.8215 14.6129 24.15 13.6572 25.25 13.0679C27.199 12.0237 27.836 11.9927 50.25 11.8493C71.828 11.7113 73.513 11.7643 77.5 12.7055C79.8375 13.2573 82.9875 13.9321 84.5 14.2055L84.8995 14.2779C85.3197 14.3541 85.7213 14.427 86.1234 14.4966C94.7809 15.9953 103.698 15.9953 304.567 15.995L313.5 15.995H529.75L537.25 14.8448C541.375 14.212 546.475 13.2558 548.583 12.7205C552.105 11.8253 554.237 11.7473 574.833 11.7573C596.273 11.7678 597.347 11.8123 599.486 12.782C600.715 13.3398 602.444 14.347 603.328 15.0203C604.423 15.856 605.579 16.2449 606.967 16.2449H609V14.2675C609 12.9654 609.441 11.6428 610.29 10.3937C611.421 8.73176 612.164 7.26972 614.681 1.74945C615.12 0.784755 615.28 5.1019 615.38 20.6965L615.511 40.8932L623.63 40.5603C633.278 40.1644 637.706 39.3661 643.039 37.0609L647 35.3489V72.1184V108.887L644.766 111.027C643.291 112.439 641.636 113.437 639.891 113.964C636.727 114.92 628.271 115.694 620.875 115.706L615.5 115.714V132.542C615.5 141.797 615.35 149.22 615.167 149.037C614.984 148.854 614.086 146.985 613.173 144.885C612.259 142.784 610.961 140.343 610.288 139.462C609.524 138.46 609.006 137.033 608.907 135.658C608.763 133.65 608.625 133.444 607.312 133.294C606.294 133.178 605.097 133.664 603.218 134.958C598.556 138.168 598.209 138.207 574.453 138.207C553.418 138.207 552.979 138.186 547.964 136.972C542.062 135.543 533.797 134.379 525.25 133.771C518.753 133.309 108.654 133.505 100 133.974C94.2625 134.285 84.9075 135.398 81.1385 136.216C79.8245 136.501 77.2875 137.079 75.5 137.501C72.7765 138.144 68.6445 138.243 50 138.112C27.896 137.958 27.7345 137.949 25.423 136.8C24.1435 136.163 22.702 135.207 22.2205 134.675C21.6105 134.001 20.6855 133.708 19.1725 133.708H17V135.728C17 137.079 16.6585 138.114 15.968 138.852C15.4005 139.459 14.317 141.306 13.56 142.955C13.2574 143.615 12.9851 144.225 12.7401 144.774L12.739 144.777L12.7383 144.778C11.8925 146.674 11.3717 147.842 11.0509 147.789C10.5367 147.705 10.5364 144.486 10.5356 136.109C10.5354 134.592 10.5353 132.905 10.532 131.037L10.5 112.621L7.875 112.974ZM68.9145 20.1187L77.75 21.4933H312.75H547.75L555.5 20.2436C562.859 19.057 564.284 18.994 583.75 18.994H604.25L606.064 22.6549C607.062 24.6683 608.144 27.5923 608.467 29.1529C608.898 31.2362 609.014 43.8123 608.902 76.476L608.75 120.962L607.434 124.343C606.711 126.203 605.586 128.511 604.934 129.472L603.75 131.218L584 131.081C565.645 130.954 563.543 130.847 554.25 129.569L544.25 128.194L310.25 128.332L76.25 128.469L67.75 129.834C59.5995 131.142 58.4845 131.198 40.632 131.203L22.014 131.209L20.7515 129.301C20.057 128.253 18.9855 126.059 18.3695 124.428L17.25 121.462L17.105 75.9762C16.999 42.5871 17.115 29.8921 17.5425 28.2411C17.8625 27.004 18.9105 24.3614 19.8715 22.368L21.619 18.7441H40.849C59.352 18.7441 60.413 18.7961 68.9145 20.1187ZM78.504 15.4621C76.7185 15.0753 74.604 14.5309 73.8045 14.252C72.0815 13.6517 32.967 13.6582 29.3985 14.2595C28.105 14.4775 26.5365 15.0133 25.912 15.4502C24.8695 16.1804 27.093 16.2419 53.2635 16.2054C79.0135 16.1694 81.438 16.0979 78.504 15.4621ZM13.9825 12.2132C14.3315 12.8655 14.495 33.3335 14.484 75.0684C14.468 137.761 14.4435 138.706 12.82 138.706C12.644 138.706 12.5 110.028 12.5 74.9765C12.5 34.3722 12.675 11.2465 12.9825 11.2465C13.2475 11.2465 13.6975 11.6813 13.9825 12.2132ZM50.25 135.601C71.209 135.735 73.024 135.677 76.75 134.763L80.75 133.781L52.75 133.764C26.086 133.749 24.8215 133.789 26.25 134.603C27.593 135.368 30.1065 135.472 50.25 135.601ZM544.775 129.737C548.337 130.028 552.038 130.455 553 130.686C553.962 130.917 445.962 131.109 313 131.112C164.454 131.116 71.865 130.941 72.8455 130.657C73.723 130.404 76.7605 130.005 79.5955 129.772C87.468 129.125 536.856 129.091 544.775 129.737ZM74 19.4274C77.946 20.2401 548.775 20.2336 552 19.4209C553.687 18.9955 493.829 18.8546 312.75 18.8571C131.546 18.8601 71.9365 19.0025 74 19.4274ZM599.25 15.0983L601.25 16.2009L572.75 16.1679C556.088 16.1489 545.081 15.9615 546.25 15.7166C547.35 15.4866 549.263 14.9638 550.5 14.5549C552.374 13.9356 556.469 13.8267 575 13.9036C596.918 13.9941 597.28 14.0121 599.25 15.0983ZM574.75 135.679C596.868 135.651 599.855 135.435 600.379 133.833C600.541 133.338 594.801 133.208 572.792 133.208C557.506 133.208 545 133.379 545 133.588C545 133.797 546.743 134.359 548.875 134.838C552.25 135.595 555.587 135.704 574.75 135.679ZM644.5 106.68C644.5 108.468 641.928 110.779 638.943 111.673C636.408 112.432 627.287 113.196 620.625 113.206L615.5 113.214V111.59V109.965L624.125 109.953C629.691 109.946 633.725 109.7 635.5 109.26C638.421 108.536 642.72 106.575 643.244 105.726C643.853 104.741 644.5 105.232 644.5 106.68ZM639.243 44.9334C643.274 43.9407 644.5 43.076 644.5 41.2256C644.5 39.4881 644.275 39.4641 640.295 40.7707C635.846 42.2312 632.048 42.7506 623.375 43.0835L615.5 43.3859V45.0604V46.7353H619.178C624.927 46.7353 635.943 45.7461 639.243 44.9334ZM644.5 73.153V101.57L643.355 103.269C640.687 107.229 634.754 108.811 623.345 108.604L615.75 108.466L615.621 78.4204L615.492 48.3748L618.121 48.0594C619.567 47.886 623 47.74 625.75 47.736C631.314 47.727 638.695 46.7258 641.75 45.5662C642.85 45.1483 643.919 44.7904 644.125 44.771C644.331 44.752 644.5 57.5234 644.5 73.153ZM612.25 138.207C612.916 138.759 613 131.657 613 74.7875C613 39.5651 612.941 10.7466 612.87 10.7466C612.799 10.7466 612.461 11.1935 612.12 11.7393C611.635 12.5161 611.5 26.3382 611.5 75.1584C611.5 130.038 611.59 137.66 612.25 138.207ZM609 129.209C609 130.875 608.834 131.209 608 131.209C607.45 131.209 607 131.104 607 130.976C607 130.614 608.666 127.21 608.843 127.21C608.929 127.21 609 128.11 609 129.209ZM608.96 22.9928L608.98 20.8684C608.997 19.0705 608.846 18.7441 608 18.7441C607.945 18.7441 607.893 18.7439 607.843 18.7437C607.452 18.742 607.212 18.7409 607.124 18.8559C606.984 19.0374 607.219 19.5076 607.825 20.7196L607.98 21.0289L608.96 22.9928ZM19 130.971C19 131.102 18.55 131.209 18 131.209C17.1775 131.209 17.0005 130.876 17.002 129.334L17.0035 127.46L18.002 129.096C18.551 129.997 19 130.84 19 130.971ZM17 20.577C17 22.6394 17.0485 22.6309 18.1995 20.3686C18.998 18.7986 18.9915 18.7441 18.013 18.7441C17.18 18.7441 17 19.0695 17 20.577Z" fill="black"/>
</svg>
