<svg width="312" height="117" viewBox="0 0 312 117" fill="none" xmlns="http://www.w3.org/2000/svg">
<path fill-rule="evenodd" clip-rule="evenodd" d="M8 1.21109C8 2.81259 5.7805 4.96344 2.586 6.45847L0 7.66858V62.3159V116.963H3.25C5.1145 116.963 6.5 116.747 6.5 116.456C6.5 116.177 7.20051 115.523 8.05701 115.002C10.348 113.609 15.4215 113.897 19.22 115.636L22.121 116.963H156.211C232.314 116.963 290.506 116.774 290.775 116.525C292.016 115.381 296.93 114.096 299.795 114.168C302.759 114.242 305.5 115.35 305.5 116.475C305.5 116.743 306.963 116.963 308.75 116.963H312V62.3159V7.66858L309.423 6.46146C306.03 4.87346 304 2.94056 304 1.29907V0H156H8V1.21109ZM304.806 11.6123C301.536 7.37866 297.207 3.87878 293.933 2.82211C291.593 2.06635 280.338 2.00187 155.818 2.03036C143.035 2.03326 131.427 2.03315 120.884 2.03304H120.882C21.7575 2.03206 16.7266 2.03201 14.102 4.54505C13.9617 4.67942 13.8283 4.82097 13.6877 4.97008C13.4081 5.26665 13.1003 5.59315 12.654 5.95261C11.0705 7.22771 8.6135 9.77441 7.194 11.6123L4.61301 14.9538L4.35449 48.0889C4.11299 79.0617 4.02401 81.6813 2.99451 88.2223C2.25351 92.9283 1.8135 98.4531 1.651 105.092L1.40948 114.964H3.42551C4.53401 114.964 5.59751 114.711 5.78851 114.402C5.97951 114.093 7.56149 113.194 9.30399 112.404C12.246 111.07 12.589 111.018 14.111 111.666C15.0125 112.05 17.3305 112.95 19.2625 113.664L22.775 114.964H156H289.225L292.738 113.664C294.67 112.95 296.988 112.05 297.889 111.666C299.411 111.018 299.754 111.07 302.696 112.404C304.439 113.194 306.021 114.093 306.212 114.402C306.403 114.711 307.445 114.964 308.53 114.964H310.5L310.495 107.091C310.491 101.289 310.148 96.8531 309.193 90.2216C307.928 81.4459 307.889 80.4088 307.642 48.0889L307.387 14.9538L304.806 11.6123ZM302.737 3.4729C303.631 5.20236 306.053 7.15274 308.652 8.2384L310.5 9.01065V12.83V16.6497L308.484 13.5317C306.433 10.3587 301.466 5.03642 298.75 3.10052L297.25 2.03085L299.612 2.01535C301.729 2.00085 302.054 2.15232 302.737 3.4729ZM309.54 86.2229C310.201 90.872 310.259 88.7646 310.379 56.0909C310.504 21.8051 310.483 20.9154 309.509 19.1025L308.51 17.2446L308.67 49.2345C308.791 73.4799 309.001 82.4346 309.54 86.2229ZM2.75201 82.4481C2.32101 86.6953 1.86301 90.2757 1.73401 90.4041C1.60551 90.5331 1.5 74.9759 1.5 55.8329C1.5 23.717 1.5675 20.8854 2.375 19.193C3.221 17.4185 3.25451 18.3032 3.39301 46.0425C3.50901 69.2738 3.38701 76.1945 2.75201 82.4481ZM3.9595 12.903C6.2845 9.42705 10.7435 4.7495 13.5 2.89359L14.75 2.05182L12.388 2.02536C10.287 2.00237 9.94451 2.1563 9.29251 3.4169C8.43701 5.06988 5.743 7.2382 3.25 8.27988L1.5 9.01065V12.7945V16.5788L3.9595 12.903Z" fill="black"/>
</svg>
