<svg width="341" height="276" viewBox="0 0 341 276" fill="none" xmlns="http://www.w3.org/2000/svg">
<path fill-rule="evenodd" clip-rule="evenodd" d="M5.84671 0.316634C5.66321 0.499577 5.51321 1.39931 5.51321 2.31602V3.98204H2.99772C0.0147154 3.98204 -0.745286 4.95718 1.08421 6.43822L2.26321 7.39244L2.40622 135.272C2.48472 205.605 2.41571 263.895 2.25271 264.804C2.09021 265.713 1.51971 266.832 0.985215 267.289C-0.747285 268.772 -0.219285 269.399 2.76321 269.399H5.51321V272.398C5.51321 275.383 5.51972 275.397 6.98372 275.397C7.79272 275.397 8.59321 275.172 8.76322 274.897C8.96821 274.566 63.4252 274.397 170.513 274.397C277.601 274.397 332.058 274.566 332.263 274.897C332.433 275.172 333.234 275.397 334.043 275.397C335.507 275.397 335.513 275.383 335.513 272.398V269.399H338.263C341.263 269.399 341.698 268.863 339.888 267.399L338.763 266.488L338.635 137.215L338.508 7.94078L339.793 6.65623C341.626 4.82381 341.071 3.98204 338.029 3.98204H335.513V2.21703C335.513 0.0746977 334.651 -0.372159 332.583 0.697005C331.21 1.40678 315.518 1.48128 170.163 1.46678C29.4807 1.45279 9.14121 1.35882 8.29271 0.717025C7.24721 -0.0732269 6.37871 -0.215699 5.84671 0.316634ZM333.013 272.899V137.941V2.98228H170.498C40.9412 2.98228 7.93521 3.10932 7.75121 3.60716C7.62421 3.95105 7.57522 64.6255 7.64172 138.44L7.76321 272.648L170.388 272.774L333.013 272.899ZM5.51321 137.44C5.51321 263.567 5.51071 263.9 4.51321 263.9C3.51571 263.9 3.51321 263.567 3.51321 137.44C3.51321 11.3133 3.51571 10.9798 4.51321 10.9798C5.51071 10.9798 5.51321 11.3133 5.51321 137.44ZM336.263 263.9C336.928 263.9 337.013 249.516 337.013 137.44C337.013 25.3643 336.928 10.9798 336.263 10.9798C335.599 10.9798 335.513 25.3643 335.513 137.44C335.513 249.516 335.599 263.9 336.263 263.9Z" fill="black"/>
</svg>
