<svg width="218" height="194" viewBox="0 0 218 194" fill="none" xmlns="http://www.w3.org/2000/svg">
<path fill-rule="evenodd" clip-rule="evenodd" d="M11.601 1.21109C11.601 3.04851 9.474 5.19436 6.1935 6.66589L3.24449 7.9895L2.94699 10.8676C1.51549 24.7232 1.402 28.7805 2.336 32.7447L3.257 36.6545L1.60049 38.134C-0.0300056 39.5906 -0.0470008 39.6495 0.508499 41.9248C1.192 44.724 1.8695 50.1273 2.584 58.4816C4.6395 82.5041 5.14201 107.679 3.88651 123.711C2.87501 136.629 1.7745 146.118 0.765503 150.624L0 154.044L1.64949 155.421L3.2995 156.798L2.3745 160.847C1.3975 165.124 1.4195 166.509 2.674 179.718L3.246 185.74L5.522 186.68C8.5585 187.936 11.601 190.723 11.601 192.248V193.439H108.562H205.521L205.85 191.944C206.242 190.159 209.003 187.752 211.948 186.628C212.103 186.569 212.246 186.518 212.38 186.47C212.779 186.327 213.091 186.216 213.346 186.026C214.276 185.333 214.43 183.597 215.147 175.519L215.149 175.503C215.215 174.762 215.285 173.968 215.361 173.117C216.108 164.787 216.101 164.436 215.118 160.892L214.107 157.242L215.642 155.659L217.178 154.075L216.149 147.891C213.746 133.43 213.351 126.695 213.353 100.219C213.354 80.5162 213.542 73.0575 214.239 64.9796C215.285 52.8694 216.407 43.3659 217.055 41.1286C217.483 39.6516 217.381 39.4076 215.796 38.1295L214.071 36.7385L215.111 32.7397C216.036 29.1858 216.095 28.2126 215.646 23.9925C215.369 21.3808 215.011 17.4445 214.851 15.2452L214.834 15.0047C214.505 10.4574 214.392 8.89945 213.562 8.01317C213.129 7.55126 212.502 7.27179 211.547 6.84666L211.45 6.80338C208.337 5.41531 206.281 3.45692 205.843 1.46304L205.521 0H108.562H11.601V1.21109ZM209.047 14.6884C206.764 10.0114 201.55 5.7102 194.952 3.06104C193.936 2.65266 170.273 2.50069 108.452 2.50369L23.351 2.5087L19.256 4.50659C14.0375 7.05279 10.587 10.3592 8.45551 14.8578C6.95401 18.0273 6.8565 18.5647 6.936 23.2427C6.9825 25.9918 7.077 29.2533 7.146 30.4904C7.222 31.858 6.9385 33.3775 6.422 34.3667C5.6675 35.8127 5.64399 36.3696 6.21199 39.3651C7.12099 44.1596 7.1425 150.323 6.235 154.619C5.698 157.163 5.72599 157.738 6.45399 159.118C7.01599 160.182 7.2405 161.6 7.14 163.449C7.058 164.961 6.95951 168.341 6.92101 170.959C6.85551 175.399 6.96149 175.944 8.48799 179.042C10.514 183.154 14.263 186.703 19.1735 189.159L22.7355 190.94H108.61H194.485L198.462 188.95C203.195 186.582 206.948 183.038 208.86 179.13C210.627 175.52 211.488 169.621 210.687 166.624C209.897 163.673 209.949 161.848 210.89 159.496C211.569 157.8 211.596 156.974 211.08 153.613C210.213 147.963 210.216 45.2343 211.084 40.0924C211.613 36.9529 211.588 36.1841 210.899 34.4632C209.947 32.0834 209.888 29.8012 210.702 26.7586C211.485 23.8325 210.694 18.0618 209.047 14.6884ZM203.601 3.24945C203.601 4.34361 207.213 7.67058 209.538 8.71875C210.641 9.21559 211.655 9.91589 211.792 10.2748C212.345 11.7148 212.735 21.9931 212.237 21.9931C211.959 21.9931 211.616 20.9724 211.476 19.7248C210.86 14.262 205.225 6.93382 199.454 4.08871C198.16 3.45091 197.101 2.8321 197.101 2.71414C197.101 2.59568 198.563 2.49921 200.351 2.49921C202.907 2.49921 203.601 2.65914 203.601 3.24945ZM211.76 183.25C211.916 182.845 212.2 180.022 212.393 176.979C212.623 173.349 212.569 171.446 212.237 171.446C211.959 171.446 211.619 172.44 211.482 173.655C210.847 179.29 205.688 186.296 199.947 189.322L197.351 190.69L200.342 190.844C202.28 190.943 203.399 190.794 203.524 190.42C203.978 189.06 206.94 186.287 209.118 185.183C210.415 184.526 211.604 183.656 211.76 183.25ZM214.105 143.447C214.715 147.703 215.4 151.674 215.627 152.27C215.932 153.071 215.786 153.582 215.067 154.233C214.532 154.716 213.991 155.008 213.864 154.881C213.607 154.624 212.621 140.964 212.609 137.498C212.605 136.284 212.69 135.384 212.799 135.499C212.907 135.614 213.495 139.19 214.105 143.447ZM5.12849 166.698C5.64899 165.598 6.06501 164.024 6.05251 163.199C6.04051 162.374 5.85949 161.261 5.64999 160.727C5.34449 159.946 5.154 160.211 4.685 162.073C4.364 163.348 4.11899 165.36 4.14149 166.544L4.18199 168.697L5.12849 166.698ZM4.427 143.83C4.2465 148.159 3.93099 152.443 3.72499 153.348C3.38499 154.846 3.267 154.933 2.4205 154.315C1.5355 153.667 1.5275 153.452 2.255 149.919C2.676 147.876 3.298 143.899 3.638 141.081C3.9775 138.263 4.36799 135.957 4.50549 135.957C4.64299 135.957 4.6075 139.5 4.427 143.83ZM17.1545 189.066C13.8735 187.128 9.1755 182.504 7.8145 179.874C7.387 179.046 6.6235 176.756 6.118 174.783C5.3695 171.863 5.13949 171.428 4.87849 172.446C4.70249 173.133 4.7915 175.72 5.0755 178.194C5.36 180.668 5.5945 182.95 5.597 183.265C5.599 183.58 6.75249 184.44 8.16049 185.175C11.007 186.663 12.04 187.54 13.3365 189.565C14.1385 190.819 14.4845 190.94 17.272 190.94H20.328L17.1545 189.066ZM212.977 162.824C213.279 164.13 213.367 165.975 213.173 166.926L212.819 168.652L211.975 166.039C211.188 163.603 211.246 160.45 212.077 160.45C212.271 160.45 212.676 161.518 212.977 162.824ZM4.3275 50.2342C4.1945 45.8356 3.951 41.506 3.7865 40.6122C3.4705 38.8963 3.262 38.7428 2.177 39.4301C1.6215 39.782 1.61099 40.3733 2.11749 42.7966C2.45499 44.4131 3.145 48.5473 3.6505 51.9837L4.5695 58.2317L4.3275 50.2342ZM5.3445 27.3024C6.1865 29.3183 6.31999 31.87 5.63899 32.9452C5.30899 33.4665 5.05099 33.1406 4.64949 31.6956C4.10199 29.7237 3.8935 25.492 4.3445 25.492C4.478 25.492 4.928 26.3067 5.3445 27.3024ZM8.12849 13.4418C9.64449 10.4712 14.2585 6.05207 17.851 4.13068L20.851 2.5257L17.489 2.5127C14.284 2.4997 14.092 2.56667 13.382 3.93924C12.4375 5.76517 10.3915 7.49017 7.77 8.6713L5.7195 9.59549L5.12 15.0238C4.345 22.0381 4.86049 24.1369 6.13049 19.1385C6.62599 17.1881 7.52499 14.6244 8.12849 13.4418ZM215.428 39.5146C215.797 39.8835 215.76 40.8937 215.304 42.8885C214.946 44.4546 214.29 48.5427 213.846 51.9737C213.402 55.4041 212.909 58.3282 212.752 58.4716C212.453 58.744 212.893 48.1589 213.423 42.3617C213.724 39.0627 214.241 38.328 215.428 39.5146ZM211.412 31.922C211.806 33.8884 212.259 33.489 213.037 30.4904C213.4 29.0924 213.46 27.6738 213.196 26.7416L212.772 25.2421L211.929 27.7673C211.403 29.3443 211.209 30.9043 211.412 31.922Z" fill="black"/>
</svg>
