<svg width="218" height="509" viewBox="0 0 218 509" fill="none" xmlns="http://www.w3.org/2000/svg">
<path fill-rule="evenodd" clip-rule="evenodd" d="M11.5365 0.982178C11.5365 2.58667 8.72451 5.30581 5.86501 6.46594L3.1965 7.54913L2.617 13.6462C1.3575 26.9005 1.33349 28.3186 2.29649 32.5333L3.20799 36.5225L1.52049 37.9305C-0.115007 39.2961 -0.148999 39.3981 0.407501 41.2875C1.3315 44.4245 2.5095 53.8701 3.549 66.4791C4.483 77.8036 4.518 84.5264 4.5235 253.67C4.5285 404.745 4.42549 430.469 3.78149 438.862C2.88999 450.484 1.763 460.263 0.7435 465.219L0 468.834L1.593 470.257L3.18649 471.68L2.291 475.331C1.3405 479.209 1.376 481.283 2.612 494.19L3.1955 500.284L6.347 501.835C9.7885 503.528 11.5365 505.322 11.5365 507.158V508.34H108.457H205.378L205.963 506.389C206.408 504.905 207.113 504.077 208.917 502.926C210.22 502.094 211.895 501.263 212.638 501.08C212.699 501.065 212.757 501.051 212.813 501.038L212.814 501.038C213.038 500.986 213.223 500.943 213.382 500.853C214.162 500.411 214.305 498.845 215.148 489.59L215.284 488.097C216.041 479.808 216.035 479.501 215.028 475.601L213.996 471.602L215.61 470.238L217.224 468.873L216.63 465.739C215.704 460.849 215.145 456.771 214.18 447.859C213.338 440.091 213.286 428.834 213.286 253.92C213.286 78.6913 213.337 67.7637 214.184 59.9811C215.177 50.8525 216.302 43.0335 216.952 40.7372C217.327 39.4106 217.181 39.0647 215.688 37.7381L214 36.2386L214.873 33.2396C215.927 29.6182 215.966 27.4104 215.142 17.9943L215.094 17.4572C214.422 9.77295 214.279 8.13844 213.397 7.45164C213.159 7.26608 212.867 7.1497 212.496 7.00188L212.4 6.96332C209.308 5.72621 206.617 3.54438 205.967 1.74695L205.336 0H108.436C12.4415 0 11.5365 0.00898319 11.5365 0.982178ZM209.127 14.8473C207.099 10.3972 203.254 6.62141 198.353 4.26465L194.681 2.49921H108.667H22.6525L18.6765 4.48853C13.94 6.85828 10.1265 10.6151 8.1385 14.8688C6.764 17.8099 6.577 20.546 7.0865 30.2405C7.17 31.8305 6.915 33.3155 6.386 34.3217C5.662 35.6998 5.634 36.2796 6.1705 38.8203C7.059 43.027 7.07201 465.255 6.18401 469.447C5.66101 471.916 5.69299 472.507 6.42799 473.945C6.98499 475.035 7.21749 476.455 7.10899 478.1C7.01799 479.474 6.90851 482.848 6.86501 485.598C6.79301 490.168 6.9085 490.845 8.2135 493.501C10.349 497.849 14.0345 501.329 19.098 503.779L23.377 505.85L109.082 505.72L194.786 505.591L198.099 503.933C203.143 501.409 206.7 497.965 208.825 493.548C210.408 490.26 210.618 489.362 210.657 485.716C210.682 483.452 210.523 480.414 210.305 478.966C209.999 476.938 210.106 475.813 210.77 474.074C211.511 472.135 211.553 471.358 211.068 468.571C210.259 463.929 210.259 43.9117 211.068 39.2692C211.552 36.4915 211.51 35.7038 210.781 33.7954C210.154 32.1539 210.025 30.9303 210.293 29.1539C210.493 27.8273 210.66 24.8297 210.665 22.4929C210.674 18.7961 210.474 17.8034 209.127 14.8473ZM204.293 4.14313C204.847 5.02585 206.422 6.46746 207.793 7.34668L207.903 7.41744C209.867 8.67624 210.867 9.3173 211.42 10.2294C211.994 11.1759 212.087 12.4143 212.276 14.938L212.286 15.0748C212.859 22.7089 212.327 23.827 210.993 17.7964C209.819 12.4871 205.761 7.5041 199.713 3.94421L197.286 2.51624L200.286 2.52722C203.116 2.53722 203.343 2.6286 204.293 4.14313ZM215.522 41.0351C215.833 39.9514 215.718 39.5291 214.984 39.0712C214.47 38.7503 213.964 38.4879 213.858 38.4879C213.587 38.4879 213.106 44.1176 212.726 51.7337C212.548 55.3076 212.521 58.1192 212.667 57.9818C212.812 57.8443 213.425 54.2859 214.029 50.0737C214.632 45.8621 215.305 41.7944 215.522 41.0351ZM212.913 30.6154C212.611 31.9209 212.207 32.9896 212.013 32.9896C211.135 32.9896 211.065 29.6332 211.896 27.3239L212.774 24.8812L213.117 26.5612C213.306 27.4849 213.214 29.3093 212.913 30.6154ZM8.3 12.6775C10.1355 9.54697 13.886 5.99206 17.3115 4.13715L20.2865 2.5257L16.9115 2.5127C14.4555 2.5027 13.5365 2.67764 13.5365 3.15399C13.5365 4.21766 10.518 6.9903 7.935 8.29889C6.616 8.96718 5.5345 9.79136 5.5325 10.1302C5.53 10.4691 5.2955 12.771 5.011 15.2452C4.727 17.7194 4.638 20.3061 4.814 20.9934C5.0735 22.0056 5.314 21.5407 6.082 18.5441C6.603 16.5098 7.6015 13.8696 8.3 12.6775ZM5.58549 28.0206C5.92799 29.3062 6.033 30.9373 5.8255 31.7625C5.492 33.0901 5.40999 33.139 4.93449 32.2893C4.19399 30.9667 3.7525 24.5893 4.4465 25.2421C4.739 25.517 5.2515 26.7675 5.58549 28.0206ZM4.25099 49.7344C4.11499 45.3358 3.873 41.0056 3.7135 40.1124C3.3995 38.3564 2.97549 38.1065 2.10049 39.1606C1.68899 39.656 1.6895 40.6107 2.1015 42.7845C2.4095 44.4075 3.075 48.4347 3.58 51.7337L4.49899 57.7319L4.25099 49.7344ZM4.3535 458.231C4.013 466.284 3.668 469.359 3.105 469.345C2.9295 469.341 2.4945 469.152 2.138 468.926C1.613 468.593 1.681 467.409 2.495 462.723C3.0485 459.538 3.6525 455.453 3.838 453.645C4.4345 447.822 4.695 450.14 4.3535 458.231ZM5.16499 481.163C5.64449 480.098 6.03299 478.524 6.02899 477.664C6.02449 476.804 5.8185 475.781 5.571 475.39C4.935 474.385 3.9365 478.297 4.1375 481.004L4.2935 483.098L5.16499 481.163ZM6.12399 489.846C7.57299 495.717 11.8495 500.969 17.815 504.204L20.7865 505.815L17.4245 505.828C14.2575 505.84 14.0205 505.761 13.347 504.467C12.413 502.672 10.8105 501.264 8.0365 499.801C6.799 499.149 5.7475 498.608 5.7 498.601C5.3355 498.543 4.5475 487.905 4.8325 486.892C5.1485 485.769 5.221 485.73 5.383 486.597C5.485 487.147 5.81899 488.609 6.12399 489.846ZM208.677 500.083C211.893 498.4 211.898 498.388 212.35 491.484C212.581 487.967 212.509 486.389 212.107 486.141C211.732 485.909 211.535 486.269 211.531 487.192C211.509 492.932 206.765 499.91 200.332 503.666C198.657 504.644 197.193 505.533 197.078 505.642C196.964 505.752 198.214 505.841 199.857 505.841C202.807 505.841 202.862 505.815 204.355 503.697C205.319 502.331 206.886 501.021 208.677 500.083ZM212.973 477.85C213.333 479.239 213.395 480.673 213.136 481.598L212.715 483.096L211.907 480.725C211.422 479.301 211.214 477.643 211.388 476.573C211.733 474.447 212.184 474.809 212.973 477.85ZM214.251 469.353C215.689 469.353 215.822 468.295 214.962 463.731C214.483 461.187 213.752 456.969 213.339 454.357L212.587 449.609L212.819 456.107C213.154 465.517 213.569 469.353 214.251 469.353Z" fill="black"/>
</svg>
